<svg xmlns="http://www.w3.org/2000/svg" xmlns:xlink="http://www.w3.org/1999/xlink" width="500" zoomAndPan="magnify" viewBox="0 0 375 374.999991" height="500" preserveAspectRatio="xMidYMid meet" version="1.0"><defs><clipPath id="id1"><path d="M 34.28125 64.203125 L 374.78125 64.203125 L 374.78125 310.953125 L 34.28125 310.953125 Z M 34.28125 64.203125 " clip-rule="nonzero"/></clipPath></defs><g clip-path="url(#id1)"><path fill="#050606" d="M 324.167969 204.789062 C 310.792969 212.125 296.664062 217.039062 285.171875 219.925781 C 285.269531 218.847656 285.363281 217.761719 285.441406 216.675781 C 285.675781 213.394531 285.835938 210.074219 285.960938 206.730469 C 304.925781 201.949219 322.257812 194.390625 335.078125 183.238281 C 341.667969 177.503906 347.054688 170.808594 350.789062 163.085938 C 354.523438 155.359375 356.582031 146.609375 356.582031 136.859375 C 356.582031 136.515625 356.582031 136.171875 356.574219 135.832031 C 356.535156 133.042969 356.179688 130.625 355.5 128.535156 C 354.496094 125.398438 352.6875 122.96875 350.3125 121.460938 C 347.9375 119.945312 345.136719 119.351562 342.199219 119.351562 C 336.941406 119.363281 331.058594 121.179688 325.03125 123.789062 C 316.011719 127.710938 306.714844 133.511719 299.625 138.339844 C 296.976562 140.140625 294.640625 141.808594 292.75 143.191406 C 294.527344 136.15625 296.546875 129.492188 298.660156 123.335938 C 300.605469 122.078125 306.820312 118.179688 314.832031 114.398438 C 319.421875 112.234375 324.601562 110.105469 329.875 108.53125 C 335.15625 106.953125 340.527344 105.9375 345.488281 105.941406 C 348.585938 105.941406 351.523438 106.335938 354.179688 107.207031 C 358.179688 108.527344 361.582031 110.859375 364.289062 114.773438 C 366.988281 118.683594 368.980469 124.265625 369.746094 132.050781 C 369.980469 134.445312 370.097656 136.78125 370.097656 139.058594 C 370.09375 151.621094 366.644531 162.441406 360.960938 171.839844 C 352.4375 185.929688 338.769531 196.789062 324.167969 204.789062 Z M 291.113281 150.113281 C 293.328125 148.394531 301.25 142.375 310.777344 136.53125 C 316.074219 133.277344 321.859375 130.089844 327.378906 127.734375 C 332.890625 125.375 338.152344 123.890625 342.199219 123.902344 C 343.761719 123.902344 345.128906 124.113281 346.28125 124.527344 C 347.144531 124.835938 347.890625 125.253906 348.554688 125.800781 C 349.535156 126.617188 350.355469 127.738281 350.976562 129.375 C 351.59375 131.003906 351.988281 133.15625 352.027344 135.894531 C 352.03125 136.214844 352.035156 136.535156 352.035156 136.859375 C 352.03125 145.972656 350.125 153.992188 346.695312 161.101562 C 341.542969 171.753906 332.925781 180.398438 321.941406 187.277344 C 311.6875 193.703125 299.382812 198.535156 286.125 201.976562 C 286.3125 195.785156 286.429688 189.523438 286.6875 183.261719 C 287.148438 171.820312 288.804688 160.632812 291.113281 150.113281 Z M 274.421875 247.757812 C 271.960938 253.554688 268.640625 258.851562 264.085938 263.578125 C 264.054688 263.609375 264.019531 263.640625 263.988281 263.675781 C 234.484375 270.980469 205.074219 273.4375 178.945312 273.4375 C 152.644531 273.4375 129.671875 270.953125 113.292969 268.476562 C 110.652344 268.074219 108.203125 267.675781 105.917969 267.289062 C 88.511719 241.890625 88.4375 227.480469 88.429688 227.164062 C 88.445312 225.921875 87.460938 224.890625 86.214844 224.859375 C 84.960938 224.824219 83.917969 225.816406 83.886719 227.074219 L 83.882812 227.074219 L 83.882812 227.164062 C 83.875 228.347656 84.253906 242.367188 99.707031 266.179688 C 98.628906 265.972656 97.625 265.78125 96.675781 265.59375 C 95.441406 264.089844 91.972656 259.605469 88.445312 252.71875 C 84.070312 244.175781 79.609375 231.964844 79.132812 217.15625 C 79.09375 215.898438 78.042969 214.914062 76.789062 214.953125 C 75.535156 214.996094 74.546875 216.046875 74.589844 217.300781 C 75.097656 233.078125 79.871094 246.011719 84.507812 255.007812 C 86.460938 258.789062 88.382812 261.867188 89.96875 264.1875 C 89.589844 264.101562 89.242188 264.019531 88.9375 263.949219 C 88.355469 263.816406 87.914062 263.710938 87.621094 263.640625 C 87.472656 263.605469 87.363281 263.578125 87.289062 263.558594 L 87.1875 263.535156 C 87.152344 263.523438 87.117188 263.523438 87.082031 263.519531 C 86.59375 263.011719 86.117188 262.496094 85.65625 261.980469 C 81.375 257.128906 78.277344 251.714844 76.007812 245.808594 C 72.601562 236.949219 71.074219 226.972656 70.3125 216.34375 C 69.546875 205.722656 69.539062 194.46875 69.074219 183.078125 C 67.964844 155.851562 60.363281 130.257812 53.054688 111.4375 C 49.308594 101.796875 45.636719 93.941406 42.941406 88.550781 C 43.121094 88.609375 43.28125 88.671875 43.46875 88.734375 C 48.351562 90.289062 55.171875 91.683594 63.683594 92.9375 C 89.183594 96.6875 129.800781 99.097656 175.609375 99.101562 C 214.035156 99.101562 248.820312 97.402344 274.074219 94.644531 C 286.707031 93.257812 296.949219 91.621094 304.164062 89.757812 C 305.667969 89.371094 307.03125 88.972656 308.273438 88.558594 C 305.574219 93.949219 301.90625 101.800781 298.164062 111.4375 C 296.996094 114.4375 295.828125 117.628906 294.671875 120.953125 C 294.636719 121.039062 294.609375 121.128906 294.582031 121.222656 C 291.761719 129.386719 289.070312 138.457031 286.902344 148.121094 C 286.871094 148.222656 286.851562 148.324219 286.832031 148.425781 C 284.394531 159.363281 282.632812 171.054688 282.144531 183.078125 C 281.597656 196.574219 281.679688 209.886719 280.398438 222.179688 C 279.429688 231.398438 277.699219 240.03125 274.421875 247.757812 Z M 253.984375 271.601562 L 253.984375 271.597656 C 253.945312 271.628906 253.609375 271.875 253.105469 272.289062 C 252.960938 272.375 252.8125 272.464844 252.667969 272.550781 C 252.515625 272.050781 252.300781 271.535156 251.976562 271.03125 C 253.464844 270.730469 254.957031 270.417969 256.453125 270.09375 C 255.894531 270.484375 255.324219 270.871094 254.742188 271.253906 C 254.476562 271.320312 254.21875 271.429688 253.984375 271.601562 Z M 244.183594 284.328125 C 243.089844 287.042969 242.351562 290.175781 242.351562 293.644531 C 242.351562 293.839844 242.375 294.042969 242.375 294.234375 C 235.710938 296.644531 207.742188 305.988281 175.425781 306.367188 C 157.148438 306.160156 140.242188 303.09375 127.796875 300.015625 C 121.347656 298.425781 116.097656 296.828125 112.464844 295.640625 C 110.699219 295.058594 109.324219 294.578125 108.375 294.234375 C 108.382812 294.042969 108.40625 293.839844 108.40625 293.644531 C 108.40625 290.171875 107.664062 287.039062 106.570312 284.328125 C 106.074219 283.089844 105.5 281.953125 104.890625 280.894531 C 108.347656 282.398438 112.09375 283.765625 116.167969 284.972656 C 130.605469 289.242188 149.066406 291.578125 172.804688 291.582031 L 177.40625 291.582031 C 177.578125 291.582031 177.746094 291.558594 177.910156 291.519531 C 178.070312 291.558594 178.238281 291.582031 178.414062 291.582031 C 206.546875 291.578125 227.273438 288.296875 242.660156 282.402344 C 243.707031 282 244.726562 281.582031 245.726562 281.15625 C 245.171875 282.144531 244.640625 283.191406 244.183594 284.328125 Z M 108.800781 274 C 108.613281 274.363281 108.460938 274.734375 108.320312 275.101562 C 107.441406 273.773438 106.640625 272.726562 105.902344 271.902344 C 107.164062 272.117188 108.464844 272.332031 109.832031 272.546875 C 109.402344 272.996094 109.070312 273.496094 108.800781 274 Z M 117.339844 280.558594 C 115.09375 279.890625 112.957031 279.179688 110.925781 278.421875 C 111.03125 277.886719 111.175781 277.257812 111.378906 276.65625 C 111.601562 275.980469 111.90625 275.355469 112.171875 275.027344 C 112.304688 274.859375 112.414062 274.773438 112.46875 274.742188 L 112.554688 274.714844 C 112.589844 274.714844 112.769531 274.726562 113.140625 274.96875 C 113.691406 275.320312 114.578125 276.195312 115.640625 277.765625 C 116.160156 278.527344 116.726562 279.453125 117.339844 280.558594 Z M 120.757812 276.371094 C 120.472656 277.050781 120.253906 277.761719 120.070312 278.464844 C 119.070312 276.699219 118.144531 275.316406 117.277344 274.25 C 117.078125 274.007812 116.878906 273.78125 116.683594 273.570312 C 118.402344 273.8125 120.183594 274.058594 122.023438 274.292969 C 121.476562 274.921875 121.078125 275.636719 120.757812 276.371094 Z M 131.910156 283.941406 C 128.726562 283.378906 125.707031 282.75 122.851562 282.050781 C 122.953125 281.25 123.109375 280.308594 123.34375 279.394531 C 123.605469 278.359375 123.980469 277.375 124.375 276.804688 C 124.566406 276.515625 124.75 276.339844 124.875 276.257812 C 125.007812 276.175781 125.058594 276.164062 125.175781 276.160156 C 125.3125 276.160156 125.605469 276.207031 126.097656 276.515625 C 126.835938 276.96875 127.929688 278.003906 129.246094 279.804688 C 130.046875 280.894531 130.933594 282.261719 131.910156 283.941406 Z M 135.578125 278.09375 C 135.058594 279.207031 134.710938 280.390625 134.449219 281.53125 C 133.027344 279.152344 131.75 277.34375 130.570312 276 C 130.332031 275.726562 130.09375 275.472656 129.863281 275.238281 C 132.15625 275.492188 134.527344 275.734375 136.960938 275.96875 C 136.390625 276.609375 135.9375 277.335938 135.578125 278.09375 Z M 150.023438 286.183594 C 145.542969 285.828125 141.3125 285.367188 137.328125 284.800781 C 137.449219 283.832031 137.644531 282.652344 137.957031 281.515625 C 138.289062 280.304688 138.769531 279.160156 139.300781 278.460938 C 139.566406 278.105469 139.832031 277.867188 140.074219 277.726562 C 140.320312 277.585938 140.535156 277.519531 140.847656 277.515625 C 141.191406 277.511719 141.679688 277.617188 142.359375 277.96875 C 143.371094 278.496094 144.75 279.597656 146.417969 281.492188 C 147.496094 282.714844 148.699219 284.269531 150.023438 286.183594 Z M 155.828125 279.214844 C 154.570312 280.992188 153.726562 282.992188 153.132812 284.6875 C 150.910156 281.421875 148.957031 279.046875 147.195312 277.375 C 146.96875 277.160156 146.75 276.96875 146.53125 276.777344 C 150.027344 277.035156 153.644531 277.253906 157.347656 277.441406 C 156.777344 277.984375 156.273438 278.585938 155.828125 279.214844 Z M 171.777344 287.023438 C 166.246094 287.007812 161.027344 286.859375 156.085938 286.585938 C 156.398438 285.605469 156.816406 284.457031 157.363281 283.335938 C 157.992188 282.027344 158.785156 280.789062 159.652344 279.953125 C 160.082031 279.535156 160.527344 279.222656 160.96875 279.015625 C 161.410156 278.808594 161.851562 278.703125 162.351562 278.703125 C 162.875 278.703125 163.484375 278.824219 164.226562 279.167969 C 165.335938 279.679688 166.726562 280.710938 168.328125 282.488281 C 169.386719 283.664062 170.539062 285.164062 171.777344 287.023438 Z M 180.078125 280.199219 C 178.621094 281.8125 177.09375 283.871094 175.46875 286.445312 C 173.167969 282.804688 171.0625 280.199219 169.078125 278.414062 C 168.859375 278.214844 168.640625 278.035156 168.421875 277.855469 C 171.863281 277.941406 175.375 277.988281 178.945312 277.992188 C 180.085938 277.992188 181.242188 277.976562 182.390625 277.96875 C 181.632812 278.597656 180.867188 279.328125 180.078125 280.199219 Z M 201.964844 279.230469 C 200.6875 280.675781 199.308594 282.476562 197.808594 284.679688 C 197.527344 283.882812 197.191406 283.019531 196.785156 282.144531 C 196.058594 280.601562 195.128906 279.019531 193.863281 277.71875 C 197.167969 277.601562 200.519531 277.4375 203.898438 277.230469 C 203.277344 277.804688 202.636719 278.46875 201.964844 279.230469 Z M 213.613281 284.839844 C 209.621094 285.402344 205.382812 285.859375 200.894531 286.207031 C 202.910156 283.289062 204.640625 281.21875 206.085938 279.855469 C 207.0625 278.925781 207.902344 278.320312 208.578125 277.96875 C 209.253906 277.617188 209.746094 277.511719 210.089844 277.515625 C 210.410156 277.519531 210.632812 277.589844 210.886719 277.738281 C 211.324219 277.996094 211.847656 278.628906 212.269531 279.546875 C 212.917969 280.910156 213.332031 282.792969 213.539062 284.292969 C 213.570312 284.480469 213.59375 284.664062 213.613281 284.839844 Z M 218.941406 277.78125 C 218.171875 278.828125 217.359375 280.070312 216.492188 281.515625 C 216.445312 281.308594 216.394531 281.097656 216.339844 280.886719 C 215.941406 279.390625 215.390625 277.847656 214.449219 276.53125 C 214.429688 276.5 214.394531 276.46875 214.371094 276.4375 C 216.414062 276.253906 218.464844 276.058594 220.523438 275.839844 C 220.015625 276.410156 219.492188 277.035156 218.941406 277.78125 Z M 228.09375 282.125 C 225.222656 282.816406 222.191406 283.441406 218.992188 284 C 220.519531 281.375 221.835938 279.492188 222.925781 278.253906 C 223.695312 277.375 224.347656 276.820312 224.835938 276.515625 C 225.332031 276.207031 225.625 276.160156 225.757812 276.160156 C 225.878906 276.164062 225.933594 276.175781 226.070312 276.269531 C 226.308594 276.410156 226.71875 276.933594 227.039062 277.714844 C 227.542969 278.871094 227.875 280.488281 228.050781 281.773438 C 228.066406 281.898438 228.078125 282.003906 228.09375 282.125 Z M 232.472656 275.839844 C 231.964844 276.597656 231.425781 277.46875 230.867188 278.457031 C 230.558594 277.269531 230.140625 276.066406 229.460938 275.007812 C 229.414062 274.929688 229.347656 274.863281 229.296875 274.792969 C 230.773438 274.597656 232.25 274.394531 233.734375 274.179688 C 233.324219 274.671875 232.910156 275.207031 232.472656 275.839844 Z M 240.023438 278.519531 C 238.035156 279.257812 235.957031 279.953125 233.757812 280.605469 C 233.6875 280.628906 233.605469 280.648438 233.535156 280.667969 C 234.589844 278.75 235.515625 277.363281 236.292969 276.421875 C 236.910156 275.667969 237.429688 275.207031 237.796875 274.96875 C 238.167969 274.726562 238.34375 274.714844 238.382812 274.714844 L 238.472656 274.746094 C 238.578125 274.796875 238.859375 275.089844 239.109375 275.578125 C 239.492188 276.304688 239.800781 277.375 239.976562 278.230469 C 239.992188 278.335938 240.007812 278.425781 240.023438 278.519531 Z M 244.125 272.984375 C 243.652344 273.589844 243.148438 274.304688 242.617188 275.101562 C 242.347656 274.378906 242 273.65625 241.5 272.992188 C 241.496094 272.984375 241.484375 272.976562 241.484375 272.972656 C 242.511719 272.796875 243.546875 272.621094 244.578125 272.4375 C 244.425781 272.617188 244.28125 272.785156 244.125 272.984375 Z M 249.589844 274.289062 C 248.484375 274.875 247.332031 275.441406 246.144531 275.988281 C 246.714844 275.183594 247.226562 274.546875 247.667969 274.070312 C 248.195312 273.503906 248.621094 273.15625 248.898438 272.992188 C 248.992188 272.933594 249.058594 272.902344 249.117188 272.878906 C 249.171875 272.960938 249.242188 273.089844 249.3125 273.265625 C 249.425781 273.550781 249.519531 273.925781 249.589844 274.289062 Z M 179.152344 287.023438 C 181.015625 284.226562 182.6875 282.25 184.136719 280.953125 C 185.105469 280.078125 185.96875 279.507812 186.707031 279.167969 C 187.449219 278.824219 188.058594 278.703125 188.582031 278.703125 C 189.101562 278.703125 189.550781 278.816406 190.011719 279.039062 C 190.808594 279.414062 191.613281 280.179688 192.328125 281.191406 C 193.40625 282.703125 194.238281 284.707031 194.761719 286.3125 C 194.796875 286.414062 194.828125 286.507812 194.855469 286.609375 C 189.917969 286.875 184.683594 287.011719 179.152344 287.023438 Z M 101.371094 274.148438 C 101.398438 274.015625 101.429688 273.882812 101.464844 273.757812 C 101.566406 273.363281 101.71875 273.027344 101.820312 272.878906 C 101.90625 272.914062 102.035156 272.980469 102.207031 273.105469 C 102.679688 273.433594 103.40625 274.136719 104.304688 275.320312 C 104.410156 275.460938 104.53125 275.636719 104.644531 275.792969 C 103.515625 275.257812 102.425781 274.710938 101.371094 274.148438 Z M 99.175781 270.710938 C 98.933594 271.019531 98.753906 271.34375 98.605469 271.660156 C 98.488281 271.90625 98.394531 272.160156 98.3125 272.40625 C 96.902344 271.554688 95.5625 270.671875 94.292969 269.757812 C 95.75 270.054688 97.367188 270.375 99.175781 270.710938 Z M 39.238281 81.5 C 39.402344 81.351562 39.636719 81.164062 39.957031 80.964844 C 41.066406 80.261719 43.050781 79.421875 45.710938 78.628906 C 50.378906 77.230469 57.140625 75.882812 65.53125 74.6875 C 90.730469 71.085938 130.6875 68.742188 175.609375 68.746094 C 213.898438 68.746094 248.5625 70.445312 273.582031 73.175781 C 286.085938 74.542969 296.1875 76.171875 303.03125 77.941406 C 306.441406 78.820312 309.046875 79.75 310.621094 80.59375 C 311.265625 80.9375 311.71875 81.261719 311.980469 81.503906 C 311.890625 81.660156 311.789062 81.839844 311.683594 82.035156 C 311.5625 82.125 311.425781 82.226562 311.261719 82.328125 C 310.152344 83.035156 308.164062 83.867188 305.507812 84.660156 C 300.839844 86.0625 294.082031 87.40625 285.6875 88.605469 C 260.484375 92.210938 220.53125 94.550781 175.609375 94.546875 C 137.320312 94.546875 102.652344 92.851562 77.636719 90.117188 C 65.132812 88.753906 55.03125 87.121094 48.191406 85.351562 C 44.773438 84.472656 42.167969 83.539062 40.597656 82.695312 C 40.144531 82.457031 39.796875 82.226562 39.527344 82.027344 C 39.421875 81.832031 39.324219 81.65625 39.238281 81.5 Z M 364.847656 174.199219 C 370.921875 164.175781 374.648438 152.464844 374.640625 139.058594 C 374.640625 136.628906 374.523438 134.144531 374.273438 131.605469 C 373.722656 126.050781 372.582031 121.378906 370.914062 117.472656 C 368.425781 111.613281 364.695312 107.488281 360.238281 104.9375 C 355.789062 102.378906 350.707031 101.386719 345.488281 101.386719 C 339.734375 101.386719 333.777344 102.582031 328.039062 104.332031 C 319.4375 106.960938 311.339844 110.859375 305.359375 114.109375 C 303.777344 114.964844 302.351562 115.773438 301.097656 116.507812 C 301.53125 115.34375 301.964844 114.203125 302.398438 113.085938 C 305.996094 103.832031 309.523438 96.242188 312.152344 90.96875 C 313.460938 88.339844 314.546875 86.289062 315.300781 84.898438 C 315.351562 84.847656 315.410156 84.804688 315.457031 84.75 C 315.824219 84.355469 316.148438 83.910156 316.390625 83.386719 C 316.578125 82.988281 316.683594 82.535156 316.734375 82.070312 C 316.757812 81.964844 316.769531 81.863281 316.773438 81.757812 C 316.773438 81.71875 316.785156 81.683594 316.785156 81.648438 C 316.785156 81.625 316.78125 81.605469 316.777344 81.582031 C 316.777344 81.464844 316.757812 81.351562 316.738281 81.238281 C 316.6875 80.769531 316.582031 80.308594 316.390625 79.90625 C 315.914062 78.894531 315.167969 78.171875 314.316406 77.542969 C 312.707031 76.378906 310.550781 75.460938 307.75 74.5625 C 302.867188 73.003906 296.046875 71.609375 287.535156 70.355469 C 262.035156 66.601562 221.417969 64.195312 175.609375 64.191406 C 137.183594 64.195312 102.398438 65.890625 77.144531 68.652344 C 64.507812 70.03125 54.269531 71.671875 47.054688 73.53125 C 43.4375 74.472656 40.585938 75.449219 38.457031 76.578125 C 37.390625 77.152344 36.496094 77.757812 35.757812 78.542969 C 35.390625 78.9375 35.070312 79.382812 34.824219 79.90625 C 34.636719 80.308594 34.527344 80.769531 34.476562 81.238281 C 34.457031 81.351562 34.445312 81.464844 34.4375 81.582031 C 34.4375 81.605469 34.433594 81.625 34.433594 81.648438 C 34.433594 81.683594 34.445312 81.71875 34.445312 81.757812 C 34.449219 81.863281 34.460938 81.964844 34.480469 82.070312 C 34.53125 82.535156 34.636719 82.988281 34.824219 83.386719 C 35.105469 83.980469 35.484375 84.464844 35.914062 84.898438 C 38.273438 89.238281 43.863281 100.050781 49.492188 114.84375 C 56.46875 133.175781 63.492188 157.59375 64.53125 183.261719 C 65.078125 196.621094 64.984375 210.007812 66.300781 222.652344 C 67.292969 232.136719 69.085938 241.214844 72.609375 249.539062 C 75.253906 255.773438 78.886719 261.582031 83.859375 266.738281 C 86.6875 269.671875 89.945312 272.390625 93.6875 274.871094 C 93.8125 275.027344 93.957031 275.179688 94.132812 275.304688 C 94.175781 275.332031 96.683594 277.160156 99.105469 280.367188 C 100.320312 281.972656 101.515625 283.914062 102.398438 286.136719 C 103.28125 288.363281 103.855469 290.863281 103.859375 293.644531 C 103.859375 294.273438 103.828125 294.914062 103.765625 295.574219 C 103.671875 296.589844 104.253906 297.539062 105.199219 297.910156 C 105.339844 297.957031 135.792969 309.917969 172.828125 310.875 C 172.996094 310.914062 173.171875 310.941406 173.351562 310.941406 C 174.035156 310.941406 174.707031 310.929688 175.386719 310.917969 C 176.058594 310.925781 176.726562 310.941406 177.40625 310.941406 C 177.585938 310.941406 177.757812 310.914062 177.929688 310.875 C 214.964844 309.917969 245.414062 297.957031 245.554688 297.910156 C 246.5 297.539062 247.085938 296.585938 246.988281 295.574219 C 246.925781 294.914062 246.894531 294.273438 246.894531 293.644531 C 246.898438 290.824219 247.492188 288.285156 248.402344 286.03125 C 249.761719 282.65625 251.835938 279.9375 253.582031 278.082031 C 254.4375 277.167969 255.207031 276.46875 255.757812 276 C 261.011719 272.757812 265.375 269.066406 268.96875 264.992188 C 273.644531 259.699219 277.023438 253.773438 279.453125 247.441406 C 282.1875 240.316406 283.746094 232.675781 284.6875 224.726562 C 300.992188 220.804688 322.820312 212.859375 340.996094 199.492188 C 350.371094 192.589844 358.773438 184.230469 364.847656 174.199219 " fill-opacity="1" fill-rule="nonzero"/></g></svg>