<svg xmlns="http://www.w3.org/2000/svg" xmlns:xlink="http://www.w3.org/1999/xlink" width="500" zoomAndPan="magnify" viewBox="0 0 375 374.999991" height="500" preserveAspectRatio="xMidYMid meet" version="1.0"><defs><clipPath id="id1"><path d="M 22.621094 74.929688 L 352.621094 74.929688 L 352.621094 337.429688 L 22.621094 337.429688 Z M 22.621094 74.929688 " clip-rule="nonzero"/></clipPath></defs><g clip-path="url(#id1)"><path fill="#050606" d="M 339.585938 190.589844 C 331.945312 228.6875 317.351562 274.417969 289.667969 314.742188 C 288.300781 315.699219 282.128906 319.832031 272.417969 323.925781 C 261.609375 328.480469 246.453125 332.960938 228.714844 332.960938 C 210.792969 332.953125 190.230469 328.40625 168.644531 314.679688 C 166.6875 311.800781 153.53125 292.03125 140.566406 261.828125 C 126.914062 230.039062 113.496094 186.71875 113.5 139.460938 C 113.5 132.261719 113.816406 124.964844 114.484375 117.605469 C 115.976562 119.355469 117.855469 120.996094 120.125 122.542969 C 124.707031 125.664062 130.796875 128.457031 138.164062 130.949219 C 149.207031 134.679688 163.128906 137.707031 179.019531 139.816406 C 194.914062 141.925781 212.773438 143.105469 231.65625 143.105469 C 264.539062 143.101562 294.308594 139.53125 316.019531 133.699219 C 326.878906 130.773438 335.726562 127.300781 342.03125 123.300781 C 344.308594 121.847656 346.261719 120.324219 347.851562 118.699219 C 347.515625 132.191406 345.984375 158.707031 339.585938 190.589844 Z M 70.558594 249.648438 C 58.214844 240.730469 47.382812 230.113281 39.664062 217.828125 C 31.941406 205.535156 27.3125 191.605469 27.304688 175.871094 C 27.304688 173.492188 27.414062 171.074219 27.628906 168.613281 C 28.4375 159.511719 30.117188 152.15625 32.40625 146.273438 C 35.847656 137.445312 40.597656 131.941406 45.96875 128.546875 C 51.34375 125.160156 57.4375 123.863281 63.65625 123.863281 C 70.882812 123.859375 78.222656 125.640625 84.378906 127.820312 C 90.53125 129.996094 95.511719 132.566406 98.027344 134.03125 C 101.996094 136.335938 104.925781 137.25 107.347656 137.265625 C 107.949219 137.265625 108.515625 137.203125 109.042969 137.085938 C 109.035156 137.878906 109.023438 138.671875 109.023438 139.460938 C 109.027344 150.890625 109.800781 162.078125 111.160156 172.925781 C 110.429688 172.082031 109.597656 170.980469 108.683594 169.507812 C 107.050781 166.878906 105.164062 163.101562 103.160156 157.703125 C 101.03125 152.027344 96.277344 147.070312 90.375 143.4375 C 84.460938 139.816406 77.34375 137.523438 70.25 137.515625 C 67.078125 137.515625 63.910156 137.980469 60.882812 139.019531 C 56.347656 140.570312 52.136719 143.4375 48.832031 147.800781 C 45.519531 152.167969 43.109375 157.984375 41.9375 165.421875 C 41.644531 167.269531 41.507812 169.195312 41.507812 171.195312 C 41.511719 179.214844 43.746094 188.359375 47.808594 197.640625 C 53.914062 211.554688 64.167969 225.78125 77.59375 236.609375 C 91.011719 247.425781 107.667969 254.84375 126.410156 254.84375 C 128.484375 254.84375 130.585938 254.722656 132.707031 254.539062 C 132.980469 255.222656 133.253906 255.898438 133.527344 256.574219 C 131.894531 256.792969 129.398438 257.027344 126.214844 257.027344 C 119.722656 257.027344 110.386719 256.054688 99.695312 251.984375 C 89.003906 247.914062 76.941406 240.757812 64.945312 228.296875 C 64.089844 227.40625 62.671875 227.378906 61.78125 228.238281 C 60.890625 229.09375 60.863281 230.507812 61.71875 231.394531 C 74.160156 244.320312 86.824219 251.871094 98.105469 256.164062 C 109.386719 260.457031 119.273438 261.496094 126.214844 261.496094 C 130.457031 261.496094 133.585938 261.109375 135.285156 260.835938 C 135.894531 262.28125 136.503906 263.710938 137.113281 265.117188 C 139.710938 271.09375 142.308594 276.652344 144.816406 281.746094 C 122.15625 277.078125 93.699219 266.382812 70.558594 249.648438 Z M 112.042969 179.425781 C 115.929688 205.667969 123.136719 229.746094 131.003906 250.195312 C 129.460938 250.304688 127.925781 250.375 126.410156 250.375 C 114.714844 250.371094 103.871094 247.292969 94.128906 242.183594 C 79.523438 234.527344 67.429688 222.253906 59.03125 209.117188 C 54.832031 202.550781 51.558594 195.773438 49.34375 189.28125 C 47.128906 182.789062 45.976562 176.582031 45.980469 171.195312 C 45.980469 169.40625 46.105469 167.707031 46.355469 166.117188 C 47.078125 161.539062 48.289062 157.75 49.835938 154.652344 C 52.164062 150.003906 55.226562 146.898438 58.707031 144.890625 C 62.191406 142.886719 66.144531 141.984375 70.25 141.984375 C 76.359375 141.976562 82.777344 144.015625 88.035156 147.246094 C 93.304688 150.464844 97.355469 154.875 98.964844 159.261719 C 102.578125 168.980469 105.933594 174.003906 108.601562 176.753906 C 109.929688 178.125 111.101562 178.917969 111.949219 179.382812 C 111.980469 179.398438 112.011719 179.414062 112.042969 179.425781 Z M 117.351562 103.949219 C 118.539062 102.390625 120.3125 100.769531 122.644531 99.183594 C 126.722656 96.398438 132.488281 93.714844 139.59375 91.320312 C 150.257812 87.714844 163.9375 84.726562 179.609375 82.648438 C 195.285156 80.570312 212.957031 79.398438 231.65625 79.398438 C 264.207031 79.394531 293.683594 82.957031 314.859375 88.652344 C 325.433594 91.492188 333.945312 94.882812 339.628906 98.503906 C 342.476562 100.308594 344.597656 102.167969 345.953125 103.949219 C 347.3125 105.746094 347.898438 107.394531 347.90625 109.019531 C 347.898438 110.640625 347.3125 112.285156 345.953125 114.082031 C 344.769531 115.640625 342.992188 117.261719 340.660156 118.851562 C 336.582031 121.632812 330.816406 124.316406 323.710938 126.714844 C 313.050781 130.316406 299.367188 133.308594 283.695312 135.386719 C 268.023438 137.460938 250.347656 138.632812 231.65625 138.632812 C 199.097656 138.636719 169.625 135.078125 148.453125 129.382812 C 137.871094 126.542969 129.363281 123.148438 123.679688 119.527344 C 120.835938 117.726562 118.707031 115.863281 117.351562 114.082031 C 115.996094 112.285156 115.40625 110.640625 115.402344 109.019531 C 115.40625 107.394531 115.996094 105.746094 117.351562 103.949219 Z M 349.515625 101.246094 C 347.9375 99.175781 345.804688 97.277344 343.183594 95.492188 C 338.601562 92.371094 332.507812 89.574219 325.144531 87.082031 C 314.101562 83.351562 300.179688 80.324219 284.285156 78.214844 C 268.394531 76.109375 250.535156 74.929688 231.65625 74.929688 C 198.769531 74.933594 169 78.503906 147.289062 84.335938 C 136.429688 87.261719 127.582031 90.734375 121.277344 94.734375 C 118.125 96.738281 115.59375 98.882812 113.792969 101.246094 C 112.039062 103.535156 110.988281 106.105469 110.9375 108.800781 C 109.953125 116.546875 109.371094 124.230469 109.140625 131.824219 C 109.097656 131.941406 109.003906 132.160156 108.855469 132.3125 C 108.75 132.421875 108.628906 132.519531 108.417969 132.613281 C 108.203125 132.703125 107.878906 132.792969 107.347656 132.792969 C 106.148438 132.808594 103.851562 132.261719 100.285156 130.175781 C 97.53125 128.570312 92.355469 125.902344 85.871094 123.609375 C 79.390625 121.316406 71.613281 119.394531 63.65625 119.394531 C 59.101562 119.394531 54.480469 120.027344 50.046875 121.621094 C 43.390625 124.003906 37.191406 128.59375 32.46875 136.132812 C 27.734375 143.667969 24.429688 154.070312 23.171875 168.21875 C 22.945312 170.808594 22.832031 173.359375 22.832031 175.871094 C 22.828125 192.496094 27.765625 207.3125 35.871094 220.203125 C 48.042969 239.550781 67.265625 254.613281 87.867188 265.679688 C 108.0625 276.515625 129.59375 283.507812 147.34375 286.785156 C 157.246094 306.15625 165.183594 317.542969 165.226562 317.609375 C 165.398438 317.851562 165.605469 318.050781 165.855469 318.214844 C 188.292969 332.59375 209.929688 337.4375 228.714844 337.429688 C 247.503906 337.429688 263.441406 332.621094 274.6875 327.816406 C 285.941406 323.015625 292.511719 318.210938 292.617188 318.132812 C 292.816406 317.988281 293 317.800781 293.140625 317.597656 C 321.4375 276.488281 336.230469 230.058594 343.976562 191.464844 C 351.714844 152.871094 352.410156 122.097656 352.410156 112.261719 C 352.410156 110.121094 352.378906 108.972656 352.378906 108.953125 C 352.378906 108.945312 352.375 108.9375 352.371094 108.925781 C 352.351562 106.183594 351.292969 103.570312 349.515625 101.246094 " fill-opacity="1" fill-rule="nonzero"/></g><path fill="#050606" d="M 123.195312 108.765625 C 123.507812 108.289062 124.164062 107.53125 125.273438 106.628906 C 128.601562 103.894531 135.996094 99.824219 150.417969 95.957031 C 171.898438 90.179688 200.8125 86.964844 231.65625 86.964844 C 262.496094 86.964844 291.410156 90.179688 312.886719 95.957031 C 324.609375 99.105469 331.6875 102.375 335.714844 104.964844 C 337.730469 106.253906 338.976562 107.382812 339.660156 108.183594 C 339.980469 108.550781 340.160156 108.835938 340.257812 109.019531 C 340.222656 109.089844 340.171875 109.171875 340.109375 109.269531 C 339.796875 109.742188 339.140625 110.5 338.03125 111.40625 C 334.707031 114.136719 327.308594 118.207031 312.886719 122.074219 C 291.410156 127.851562 262.496094 131.070312 231.65625 131.066406 C 200.8125 131.070312 171.898438 127.851562 150.417969 122.074219 C 138.699219 118.925781 131.617188 115.660156 127.589844 113.070312 C 125.574219 111.777344 124.328125 110.652344 123.644531 109.851562 C 123.328125 109.484375 123.144531 109.195312 123.046875 109.011719 C 123.085938 108.945312 123.128906 108.863281 123.195312 108.765625 Z M 121.664062 114.203125 C 125.53125 117.660156 133.464844 122.132812 149.257812 126.390625 C 171.289062 132.308594 200.492188 135.535156 231.65625 135.535156 C 262.816406 135.535156 292.015625 132.308594 314.050781 126.390625 C 326.082031 123.152344 333.554688 119.769531 338.136719 116.832031 C 340.425781 115.355469 342 113.996094 343.058594 112.757812 C 343.585938 112.140625 343.996094 111.550781 344.292969 110.957031 C 344.582031 110.363281 344.792969 109.773438 344.804688 109.015625 C 344.792969 108.261719 344.582031 107.671875 344.292969 107.078125 C 343.769531 106.046875 342.929688 105 341.640625 103.832031 C 337.773438 100.371094 329.84375 95.898438 314.050781 91.640625 C 292.015625 85.722656 262.816406 82.5 231.65625 82.496094 C 200.492188 82.5 171.289062 85.722656 149.257812 91.640625 C 137.222656 94.878906 129.753906 98.261719 125.167969 101.203125 C 122.878906 102.675781 121.308594 104.039062 120.246094 105.273438 C 119.714844 105.890625 119.308594 106.484375 119.011719 107.078125 C 118.722656 107.671875 118.511719 108.261719 118.5 109.015625 C 118.511719 109.773438 118.722656 110.363281 119.011719 110.957031 C 119.535156 111.992188 120.378906 113.035156 121.664062 114.203125 " fill-opacity="1" fill-rule="nonzero"/><path fill="#050606" d="M 336.050781 139.304688 C 334.820312 139.195312 333.730469 140.101562 333.621094 141.328125 C 333.621094 141.328125 333.613281 141.40625 333.601562 141.570312 C 333.359375 144.082031 331.160156 166.09375 325.195312 194.480469 C 319.238281 222.867188 309.484375 257.648438 294.277344 285.609375 C 293.6875 286.695312 294.089844 288.054688 295.175781 288.640625 C 296.265625 289.230469 297.621094 288.828125 298.210938 287.742188 C 314.257812 258.203125 324.179688 221.757812 330.144531 192.648438 C 336.097656 163.546875 338.070312 141.792969 338.078125 141.734375 C 338.1875 140.503906 337.285156 139.417969 336.050781 139.304688 " fill-opacity="1" fill-rule="nonzero"/><path fill="#050606" d="M 289.800781 294.402344 C 286.199219 294.402344 286.195312 299.988281 289.800781 299.988281 C 293.402344 299.988281 293.40625 294.402344 289.800781 294.402344 " fill-opacity="1" fill-rule="nonzero"/></svg>