<svg xmlns="http://www.w3.org/2000/svg" xmlns:xlink="http://www.w3.org/1999/xlink" width="500" zoomAndPan="magnify" viewBox="0 0 375 374.999991" height="500" preserveAspectRatio="xMidYMid meet" version="1.0"><defs><clipPath id="id1"><path d="M 19 19.480469 L 356 19.480469 L 356 355.480469 L 19 355.480469 Z M 19 19.480469 " clip-rule="nonzero"/></clipPath></defs><g clip-path="url(#id1)"><path fill="#000000" d="M 113.757812 111.34375 C 113.863281 109.8125 113.921875 108.320312 113.945312 106.871094 C 115 107.390625 116.308594 108.003906 117.890625 108.675781 C 118.296875 112.070312 118.488281 115.753906 118.339844 119.71875 C 117.574219 140.601562 107.210938 173.574219 62.738281 212.917969 C 61.839844 208.910156 61.597656 205.851562 61.535156 204.332031 C 62.832031 202.667969 63.765625 201.757812 63.796875 201.726562 C 83.921875 182.585938 96.230469 164.597656 103.617188 148.789062 C 103.828125 148.53125 103.980469 148.226562 104.042969 147.886719 C 110.578125 133.621094 113.101562 121.179688 113.757812 111.34375 Z M 108.699219 74.957031 C 110.011719 73.800781 111.601562 72.867188 113.253906 71.945312 C 119.546875 68.429688 126.183594 65.402344 133.21875 62.828125 C 129.796875 64.472656 126.285156 66.296875 122.578125 68.371094 C 118.96875 70.390625 114.21875 73.980469 110.886719 77.851562 C 110.292969 76.847656 109.554688 75.828125 108.699219 74.957031 Z M 153.082031 58.960938 C 153.761719 58.699219 154.433594 58.4375 155.101562 58.175781 C 158.472656 56.863281 161.699219 55.617188 165.089844 54.8125 L 165.027344 54.835938 C 160.871094 56.40625 156.574219 58.027344 152.546875 60.21875 C 142.792969 65.527344 135.316406 73.890625 130.539062 79.71875 C 129.351562 81.171875 128.148438 82.714844 127.199219 84.433594 C 125.335938 83.082031 123.25 81.769531 120.933594 80.8125 C 119.378906 80.167969 117.328125 79.542969 115.039062 79.359375 C 117.863281 76.40625 121.578125 73.605469 124.574219 71.929688 C 129.648438 69.089844 134.34375 66.714844 138.933594 64.675781 C 143.5625 62.613281 148.398438 60.757812 153.082031 58.960938 Z M 168.625 57.839844 L 168.765625 57.769531 C 168.980469 58.003906 169.210938 58.226562 169.457031 58.441406 C 162.273438 64.898438 156.304688 72.835938 152.160156 81.539062 C 151.457031 83.007812 150.78125 84.574219 150.347656 86.242188 C 145.375 83.925781 139.742188 83.070312 134.304688 83.851562 C 133.546875 83.960938 132.839844 84.109375 132.15625 84.277344 C 132.644531 83.613281 133.160156 82.957031 133.699219 82.300781 C 140.941406 73.460938 147.550781 67.582031 154.5 63.800781 C 158.277344 61.746094 162.441406 60.171875 166.46875 58.652344 Z M 166.289062 36.492188 C 166.289062 34.796875 167.546875 33.203125 169.558594 31.957031 C 171.640625 34.035156 175.140625 35.375 179.1875 35.375 C 183.300781 35.375 186.851562 33.988281 188.917969 31.855469 C 191.03125 33.109375 192.363281 34.75 192.363281 36.492188 C 192.363281 40.234375 186.269531 43.515625 179.328125 43.515625 C 172.382812 43.515625 166.289062 40.234375 166.289062 36.492188 Z M 179.1875 23.5625 C 183.523438 23.5625 186.761719 25.605469 186.761719 27.429688 C 186.761719 29.253906 183.523438 31.296875 179.1875 31.296875 C 174.851562 31.296875 171.613281 29.253906 171.613281 27.429688 C 171.613281 25.605469 174.851562 23.5625 179.1875 23.5625 Z M 202.207031 63.800781 C 209.15625 67.582031 215.761719 73.460938 223.003906 82.304688 C 223.542969 82.957031 224.058594 83.613281 224.546875 84.277344 C 223.863281 84.109375 223.15625 83.960938 222.394531 83.851562 C 216.972656 83.070312 211.351562 83.925781 206.355469 86.242188 C 205.921875 84.578125 205.246094 83.011719 204.546875 81.539062 C 200.476562 72.996094 194.648438 65.191406 187.644531 58.804688 C 187.960938 58.550781 188.257812 58.285156 188.535156 58.007812 L 190.230469 58.652344 C 194.261719 60.171875 198.425781 61.746094 202.207031 63.800781 Z M 201.605469 58.179688 C 202.273438 58.4375 202.945312 58.703125 203.621094 58.960938 C 208.300781 60.753906 213.140625 62.609375 217.769531 64.675781 C 222.359375 66.714844 227.054688 69.089844 232.128906 71.929688 C 235.632812 73.890625 239.710938 76.589844 242.675781 79.308594 C 239.976562 79.359375 237.550781 80.074219 235.769531 80.8125 C 233.453125 81.769531 231.367188 83.082031 229.503906 84.433594 C 228.554688 82.714844 227.355469 81.171875 226.164062 79.71875 C 221.386719 73.890625 213.914062 65.527344 204.15625 60.21875 C 200.128906 58.027344 195.832031 56.40625 191.675781 54.835938 L 191.613281 54.8125 C 195.007812 55.613281 198.230469 56.863281 201.605469 58.179688 Z M 243.449219 71.945312 C 245.101562 72.867188 246.695312 73.800781 248.007812 74.957031 C 247.355469 75.617188 246.777344 76.363281 246.277344 77.121094 C 242.113281 73.019531 236.199219 69.535156 234.121094 68.371094 C 230.417969 66.296875 226.902344 64.46875 223.484375 62.828125 C 230.519531 65.402344 237.160156 68.429688 243.449219 71.945312 Z M 249.664062 140.753906 C 249.707031 141.082031 249.828125 141.382812 250.007812 141.648438 C 252.074219 146.902344 254.6875 152.445312 257.964844 158.226562 C 258.050781 158.550781 258.222656 158.835938 258.441406 159.074219 C 266.011719 172.238281 277.027344 186.628906 292.910156 201.730469 C 292.945312 201.761719 293.875 202.660156 295.171875 204.316406 C 295.109375 205.820312 294.871094 208.832031 293.996094 212.792969 C 258.40625 179.097656 239.140625 146.398438 238.261719 118.082031 C 238.15625 114.738281 238.320312 111.625 238.667969 108.738281 C 240.316406 108.042969 241.671875 107.40625 242.757812 106.871094 C 242.78125 108.320312 242.839844 109.8125 242.945312 111.34375 C 243.488281 119.5 245.328125 129.460938 249.664062 140.753906 Z M 261.125 120.605469 C 269.566406 107.304688 282.914062 100.558594 300.792969 100.558594 C 335.097656 100.558594 349.199219 131.578125 350.84375 158.136719 C 352.386719 182.945312 330.320312 211.015625 305.824219 216.039062 C 304.367188 211.21875 302.230469 207.296875 300.296875 204.410156 C 327.324219 195.886719 336.769531 172.132812 334.019531 151.828125 C 331.625 134.203125 319.175781 115.304688 297.46875 115.304688 L 297.21875 115.304688 C 284.671875 115.390625 274.855469 119.1875 268.039062 126.605469 C 261.226562 134.015625 258.910156 143.386719 258.160156 149.933594 C 256.480469 146.558594 255.03125 143.285156 253.789062 140.125 C 254.117188 137.851562 255.660156 129.207031 261.125 120.605469 Z M 295.71875 198.773438 C 280.101562 183.921875 269.320312 169.824219 261.941406 156.972656 C 261.835938 153.945312 261.859375 139.332031 271.0625 129.34375 C 277.082031 122.808594 285.894531 119.460938 297.246094 119.382812 L 297.464844 119.382812 C 316.722656 119.382812 327.816406 136.457031 329.976562 152.375 C 332.355469 169.921875 325.273438 193.007812 297.699219 200.933594 C 296.609375 199.625 295.835938 198.882812 295.71875 198.773438 Z M 122.167969 110.382812 C 125 111.441406 128.359375 112.558594 132.234375 113.636719 C 133.007812 120.050781 133.421875 127.515625 133.058594 135.863281 C 131.902344 162.378906 122.40625 203.191406 84.03125 247.734375 C 82.441406 246.351562 80.914062 244.925781 79.464844 243.4375 C 70.675781 234.398438 66.195312 224.851562 63.902344 217.328125 C 110.921875 176.292969 121.710938 141.542969 122.429688 119.558594 C 122.535156 116.308594 122.417969 113.261719 122.167969 110.382812 Z M 135.945312 110.339844 C 134.46875 99.894531 132.128906 92.53125 130.835938 89.003906 C 131.964844 88.492188 133.296875 88.121094 134.890625 87.890625 C 139.988281 87.152344 145.296875 88.089844 149.878906 90.542969 C 150.007812 90.613281 150.160156 90.691406 150.328125 90.769531 C 151.003906 94.007812 152.523438 102.097656 153.558594 113.746094 C 146.894531 112.847656 141.011719 111.644531 135.945312 110.339844 Z M 154.53125 144.726562 C 153.792969 174.945312 147.652344 220.636719 122.761719 267.410156 C 108.636719 263.484375 96.753906 257.785156 87.179688 250.328125 C 126.269531 204.925781 135.949219 163.1875 137.132812 136.042969 C 137.480469 128.109375 137.152344 120.972656 136.488281 114.742188 C 141.558594 115.980469 147.363281 117.097656 153.898438 117.929688 C 154.460938 125.65625 154.777344 134.683594 154.53125 144.726562 Z M 158.023438 118.40625 C 163.9375 119.015625 170.386719 119.382812 177.378906 119.382812 C 177.734375 119.382812 178.0625 119.285156 178.351562 119.125 C 178.644531 119.285156 178.972656 119.382812 179.328125 119.382812 C 186.320312 119.382812 192.765625 119.015625 198.683594 118.40625 C 198.148438 126.046875 197.855469 134.898438 198.089844 144.679688 C 198.820312 175.191406 204.976562 221.238281 229.886719 268.472656 C 215.265625 272.085938 198.394531 273.90625 179.328125 273.90625 C 178.972656 273.90625 178.644531 274.007812 178.351562 274.164062 C 178.0625 274.007812 177.734375 273.90625 177.378906 273.90625 C 158.308594 273.90625 141.4375 272.085938 126.816406 268.472656 C 151.730469 221.238281 157.882812 175.191406 158.613281 144.679688 C 158.847656 134.898438 158.554688 126.046875 158.023438 118.40625 Z M 220.21875 114.742188 C 219.546875 120.972656 219.226562 128.109375 219.570312 136.042969 C 220.753906 163.1875 230.433594 204.925781 269.523438 250.328125 C 259.949219 257.785156 248.066406 263.484375 233.941406 267.410156 C 209.050781 220.636719 202.910156 174.945312 202.171875 144.726562 C 201.925781 134.683594 202.246094 125.65625 202.804688 117.929688 C 209.339844 117.097656 215.144531 115.980469 220.21875 114.742188 Z M 220.761719 110.34375 C 215.691406 111.644531 209.808594 112.847656 203.144531 113.746094 C 204.183594 102.097656 205.699219 94.003906 206.375 90.769531 C 206.550781 90.683594 206.71875 90.601562 206.863281 90.523438 C 211.40625 88.089844 216.714844 87.152344 221.8125 87.890625 C 223.40625 88.121094 224.742188 88.492188 225.871094 89.003906 C 224.574219 92.53125 222.234375 99.894531 220.761719 110.34375 Z M 234.175781 118.039062 C 235.046875 148.355469 254.785156 181.742188 292.816406 217.285156 C 290.527344 224.8125 286.042969 234.382812 277.238281 243.4375 C 275.792969 244.925781 274.261719 246.351562 272.671875 247.734375 C 234.378906 203.289062 224.855469 162.5625 223.65625 136.105469 C 223.277344 127.664062 223.691406 120.117188 224.472656 113.632812 C 228.277344 112.578125 231.585938 111.480469 234.386719 110.441406 C 234.183594 112.835938 234.101562 115.363281 234.175781 118.039062 Z M 244.054688 90.683594 C 243.433594 94.078125 242.964844 97.953125 242.808594 102.25 C 242.09375 102.628906 240.984375 103.195312 239.460938 103.890625 C 240.59375 98.433594 242.351562 94.015625 244.054688 90.683594 Z M 234.953125 105.796875 C 232.265625 106.851562 228.980469 108.015625 225.097656 109.152344 C 225.832031 104.46875 226.734375 100.480469 227.585938 97.289062 C 228.722656 93.023438 229.777344 90.175781 230.253906 88.976562 C 232.308594 87.363281 234.695312 85.671875 237.328125 84.578125 C 239.46875 83.695312 241.632812 83.300781 243.613281 83.40625 C 240.894531 87.28125 236.695312 94.796875 234.953125 105.796875 Z M 177.25 86.996094 C 177.652344 87.027344 178.03125 86.933594 178.359375 86.753906 C 178.683594 86.929688 179.058594 87.023438 179.453125 86.996094 C 187.171875 86.511719 195.03125 87.734375 202.261719 90.523438 C 201.492188 94.3125 200.003906 102.617188 199.007812 114.246094 C 193.011719 114.902344 186.453125 115.304688 179.328125 115.304688 C 178.972656 115.304688 178.644531 115.402344 178.351562 115.5625 C 178.0625 115.402344 177.734375 115.304688 177.378906 115.304688 C 170.25 115.304688 163.695312 114.902344 157.699219 114.246094 C 156.699219 102.617188 155.210938 94.308594 154.441406 90.523438 C 161.660156 87.738281 169.527344 86.507812 177.25 86.996094 Z M 173.136719 60.613281 C 174.8125 61.25 176.722656 61.609375 178.773438 61.609375 C 180.578125 61.609375 182.273438 61.328125 183.800781 60.824219 C 190.910156 67.03125 196.808594 74.777344 200.863281 83.292969 C 201.292969 84.203125 201.710938 85.140625 202.042969 86.097656 C 194.75 83.546875 186.90625 82.441406 179.199219 82.925781 C 178.890625 82.941406 178.605469 83.035156 178.351562 83.175781 C 178.097656 83.035156 177.816406 82.941406 177.507812 82.925781 C 169.796875 82.4375 161.960938 83.546875 154.660156 86.097656 C 154.996094 85.140625 155.410156 84.203125 155.839844 83.292969 C 159.941406 74.683594 165.921875 66.855469 173.136719 60.613281 Z M 171.265625 46.320312 C 173.65625 47.132812 176.390625 47.59375 179.328125 47.59375 C 181.890625 47.59375 184.300781 47.234375 186.464844 46.605469 C 186.179688 49.5625 186.59375 52.113281 186.753906 52.941406 C 186.589844 55.445312 183.003906 57.53125 178.773438 57.53125 C 174.652344 57.53125 171.140625 55.554688 170.808594 53.136719 C 171.191406 52.109375 171.605469 50.0625 171.265625 46.320312 Z M 117.132812 103.839844 C 115.667969 103.167969 114.589844 102.617188 113.894531 102.25 C 113.710938 97.234375 113.105469 92.800781 112.328125 89.027344 C 114.003906 92.554688 115.910156 97.554688 117.132812 103.839844 Z M 113.992188 83.386719 C 115.71875 83.425781 117.558594 83.828125 119.375 84.578125 C 122.007812 85.671875 124.398438 87.363281 126.449219 88.976562 C 127.285156 91.074219 129.894531 98.195312 131.613281 109.152344 C 127.671875 108 124.34375 106.816406 121.628906 105.746094 C 119.972656 94.882812 116.265625 87.25 113.992188 83.386719 Z M 282.097656 268.050781 C 244.535156 303.300781 202.910156 303.546875 180.265625 303.546875 C 180.109375 303.546875 179.945312 303.546875 179.789062 303.546875 L 179.328125 303.546875 C 178.972656 303.546875 178.644531 303.644531 178.351562 303.800781 C 178.0625 303.644531 177.734375 303.546875 177.378906 303.546875 L 176.917969 303.546875 C 176.757812 303.546875 176.597656 303.546875 176.4375 303.546875 C 153.789062 303.546875 112.167969 303.296875 74.605469 268.050781 C 61.597656 255.847656 54.484375 243.476562 53.378906 231.226562 C 53.394531 230.980469 53.371094 230.742188 53.304688 230.519531 C 53.246094 229.683594 53.214844 228.84375 53.210938 228.007812 C 53.183594 220.523438 55.488281 214.300781 57.953125 209.792969 C 59.171875 218.003906 63.207031 232.523438 76.453125 246.191406 C 96.902344 267.289062 130.859375 277.984375 177.378906 277.984375 C 177.734375 277.984375 178.0625 277.886719 178.351562 277.726562 C 178.644531 277.886719 178.972656 277.984375 179.328125 277.984375 C 225.84375 277.984375 259.804688 267.289062 280.246094 246.191406 C 293.511719 232.511719 297.542969 217.980469 298.753906 209.769531 C 301.210938 214.257812 303.507812 220.457031 303.496094 227.941406 C 303.464844 241.261719 296.269531 254.753906 282.097656 268.050781 Z M 80.203125 278.28125 C 116.570312 307.386719 154.878906 307.621094 176.429688 307.621094 C 176.589844 307.621094 176.757812 307.621094 176.917969 307.621094 L 177.378906 307.621094 C 177.734375 307.621094 178.0625 307.523438 178.351562 307.363281 C 178.644531 307.523438 178.972656 307.621094 179.328125 307.621094 L 179.789062 307.621094 C 179.949219 307.621094 180.113281 307.621094 180.273438 307.621094 C 201.679688 307.621094 239.625 307.386719 275.777344 278.855469 C 284.621094 284.949219 289.296875 291.71875 289.296875 298.496094 C 289.296875 309.128906 277.632812 319.722656 257.285156 327.546875 C 236.019531 335.730469 207.710938 340.234375 177.5625 340.234375 C 147.417969 340.234375 119.105469 335.730469 97.847656 327.546875 C 77.5 319.722656 65.828125 309.128906 65.828125 298.496094 C 65.828125 291.5 70.800781 284.519531 80.203125 278.28125 Z M 299.613281 299.53125 C 299.613281 313.074219 287.230469 325.949219 264.742188 335.785156 C 241.722656 345.859375 211.066406 351.40625 178.425781 351.40625 C 145.785156 351.40625 115.128906 345.859375 92.105469 335.785156 C 69.621094 325.949219 57.234375 313.074219 57.234375 299.53125 C 57.234375 290.507812 62.910156 281.5625 73.640625 273.664062 C 73.84375 273.515625 74.007812 273.328125 74.136719 273.132812 C 75.066406 273.964844 75.996094 274.777344 76.925781 275.570312 C 66.992188 282.449219 61.75 290.34375 61.75 298.496094 C 61.75 324.1875 112.621094 344.3125 177.5625 344.3125 C 206.398438 344.3125 232.457031 340.34375 252.523438 333.683594 C 277.652344 325.339844 293.378906 312.78125 293.378906 298.496094 C 293.378906 294.554688 292.136719 290.671875 289.746094 286.929688 C 287.339844 283.167969 283.765625 279.550781 279.066406 276.175781 C 280.351562 275.09375 281.632812 273.976562 282.910156 272.820312 C 283.011719 273.277344 283.265625 273.703125 283.667969 274.003906 C 294.101562 281.816406 299.613281 290.640625 299.613281 299.53125 Z M 49.144531 227.191406 C 45.480469 222.835938 39.992188 208.78125 48.746094 164.285156 C 48.882812 163.722656 52.082031 150.320312 51.003906 135.554688 C 49.535156 115.472656 40.765625 102.773438 25.644531 98.816406 C 25.507812 98.78125 25.363281 98.761719 25.222656 98.753906 C 24.539062 98.71875 23.671875 98.476562 23.378906 98.257812 C 23.472656 97.773438 24.425781 95.257812 34.027344 89.234375 C 34.207031 89.121094 34.386719 89.035156 34.570312 88.929688 C 38.445312 86.6875 42.5625 86.351562 47.132812 87.933594 C 62.066406 93.117188 76.003906 116.71875 79.035156 125.238281 C 83.128906 136.753906 88.398438 147.484375 98.871094 149.28125 C 94.828125 157.507812 89.390625 166.335938 82.148438 175.617188 C 76.335938 183.070312 69.359375 190.8125 60.988281 198.769531 C 60.859375 198.890625 59.957031 199.761719 58.710938 201.296875 C 58.042969 201.558594 57.570312 202.171875 57.464844 202.90625 C 54.035156 207.578125 49.328125 216.003906 49.144531 227.191406 Z M 100.691406 145.390625 C 92.035156 144.605469 87.265625 136.207031 82.878906 123.871094 C 79.550781 114.523438 64.929688 89.792969 48.472656 84.082031 C 47.480469 83.738281 46.496094 83.472656 45.527344 83.273438 C 42.519531 82.664062 39.617188 82.75 36.835938 83.539062 C 35.128906 84.023438 33.464844 84.765625 31.855469 85.78125 C 22.222656 91.828125 18.5 95.886719 19.414062 99.339844 C 20.179688 102.21875 23.746094 102.722656 24.792969 102.8125 C 56.945312 111.421875 44.90625 162.804688 44.761719 163.410156 C 36.484375 205.476562 40.542969 222.316406 45.40625 229.035156 C 46.871094 231.054688 48.335938 232.078125 49.417969 232.601562 C 50.871094 245.324219 58.171875 258.019531 71.179688 270.410156 C 59.390625 279.101562 53.15625 289.171875 53.15625 299.53125 C 53.15625 314.792969 66.40625 328.996094 90.472656 339.523438 C 114 349.816406 145.234375 355.484375 178.425781 355.484375 C 211.617188 355.484375 242.851562 349.816406 266.378906 339.523438 C 290.441406 328.996094 303.695312 314.792969 303.695312 299.53125 C 303.695312 289.304688 297.617188 279.351562 286.117188 270.742188 C 285.921875 270.597656 285.714844 270.5 285.5 270.433594 C 300.109375 256.523438 307.546875 242.234375 307.574219 227.949219 C 307.578125 225.125 307.292969 222.46875 306.804688 220 C 333.472656 214.464844 356.597656 184.949219 354.917969 157.882812 C 353.640625 137.261719 345.203125 114.128906 326.382812 103.066406 C 321.042969 99.933594 314.882812 97.765625 307.800781 96.902344 C 305.554688 96.632812 303.222656 96.480469 300.792969 96.480469 C 266.40625 96.484375 254.90625 120.496094 251.253906 132.96875 C 248.683594 124.824219 247.46875 117.550781 247.035156 111.355469 C 245.511719 89.652344 252.941406 76.171875 253.015625 76.039062 C 253.453125 75.265625 253.339844 74.296875 252.730469 73.644531 C 252.519531 73.414062 252.253906 73.269531 251.976562 73.160156 C 250.117188 71.097656 247.738281 69.664062 245.441406 68.382812 C 229.550781 59.507812 211.605469 53.632812 190.621094 50.414062 L 190.527344 50.398438 L 190.511719 50.222656 C 190.394531 48.738281 190.394531 46.671875 190.941406 44.695312 C 194.332031 42.679688 196.441406 39.777344 196.441406 36.492188 C 196.441406 33.152344 194.269531 30.214844 190.785156 28.195312 C 190.820312 27.945312 190.839844 27.6875 190.839844 27.429688 C 190.839844 22.972656 185.722656 19.480469 179.1875 19.480469 C 172.652344 19.480469 167.53125 22.972656 167.53125 27.429688 C 167.53125 27.742188 167.5625 28.042969 167.609375 28.34375 C 164.277344 30.359375 162.210938 33.238281 162.210938 36.492188 C 162.210938 39.5 163.980469 42.191406 166.878906 44.171875 C 167.355469 47.140625 167.359375 49.070312 167.253906 50.238281 L 167.167969 50.242188 C 145.714844 53.421875 127.425781 59.355469 111.265625 68.382812 C 108.964844 69.664062 106.585938 71.097656 104.726562 73.160156 C 104.449219 73.269531 104.1875 73.414062 103.976562 73.644531 C 103.367188 74.292969 103.25 75.261719 103.6875 76.039062 C 103.761719 76.171875 111.191406 89.652344 109.667969 111.355469 C 109.023438 120.546875 106.660156 132.117188 100.691406 145.390625 " fill-opacity="1" fill-rule="nonzero"/></g></svg>