<svg xmlns="http://www.w3.org/2000/svg" xmlns:xlink="http://www.w3.org/1999/xlink" width="500" zoomAndPan="magnify" viewBox="0 0 375 374.999991" height="500" preserveAspectRatio="xMidYMid meet" version="1.0"><defs><clipPath id="id1"><path d="M 8.4375 78.308594 L 366.1875 78.308594 L 366.1875 337.808594 L 8.4375 337.808594 Z M 8.4375 78.308594 " clip-rule="nonzero"/></clipPath></defs><g clip-path="url(#id1)"><path fill="#050606" d="M 313.011719 226.160156 C 298.960938 233.875 284.117188 239.042969 272.042969 242.078125 C 272.144531 240.945312 272.242188 239.804688 272.324219 238.660156 C 272.574219 235.210938 272.738281 231.71875 272.875 228.203125 C 292.796875 223.171875 311.007812 215.222656 324.480469 203.496094 C 331.402344 197.464844 337.0625 190.425781 340.984375 182.300781 C 344.90625 174.175781 347.070312 164.976562 347.070312 154.71875 C 347.070312 154.359375 347.070312 154 347.0625 153.636719 C 347.023438 150.707031 346.648438 148.167969 345.933594 145.964844 C 344.882812 142.664062 342.980469 140.113281 340.480469 138.527344 C 337.988281 136.933594 335.046875 136.308594 331.957031 136.308594 C 326.4375 136.320312 320.257812 138.230469 313.921875 140.972656 C 304.445312 145.101562 294.675781 151.199219 287.226562 156.277344 C 284.445312 158.167969 281.992188 159.925781 280.003906 161.378906 C 281.871094 153.980469 283.996094 146.972656 286.214844 140.496094 C 288.257812 139.175781 294.789062 135.074219 303.207031 131.097656 C 308.027344 128.820312 313.46875 126.582031 319.011719 124.929688 C 324.558594 123.269531 330.203125 122.199219 335.414062 122.203125 C 338.671875 122.203125 341.753906 122.617188 344.546875 123.535156 C 348.75 124.925781 352.324219 127.375 355.171875 131.492188 C 358.007812 135.609375 360.097656 141.476562 360.902344 149.664062 C 361.148438 152.183594 361.269531 154.636719 361.269531 157.03125 C 361.265625 170.242188 357.644531 181.625 351.671875 191.507812 C 342.714844 206.324219 328.355469 217.75 313.011719 226.160156 Z M 278.285156 168.660156 C 280.613281 166.851562 288.9375 160.523438 298.945312 154.375 C 304.511719 150.953125 310.589844 147.601562 316.386719 145.125 C 322.179688 142.644531 327.707031 141.078125 331.957031 141.09375 C 333.601562 141.09375 335.035156 141.316406 336.246094 141.753906 C 337.15625 142.078125 337.941406 142.515625 338.636719 143.089844 C 339.667969 143.949219 340.53125 145.125 341.179688 146.847656 C 341.832031 148.5625 342.246094 150.828125 342.285156 153.707031 C 342.289062 154.042969 342.292969 154.378906 342.292969 154.71875 C 342.289062 164.304688 340.285156 172.738281 336.683594 180.214844 C 331.273438 191.417969 322.214844 200.507812 310.675781 207.746094 C 299.902344 214.5 286.972656 219.582031 273.042969 223.203125 C 273.238281 216.691406 273.363281 210.105469 273.632812 203.519531 C 274.121094 191.488281 275.859375 179.722656 278.285156 168.660156 Z M 260.746094 271.347656 C 258.160156 277.445312 254.671875 283.015625 249.890625 287.984375 C 249.855469 288.019531 249.820312 288.054688 249.785156 288.089844 C 218.785156 295.773438 187.882812 298.355469 160.433594 298.355469 C 132.796875 298.355469 108.664062 295.746094 91.453125 293.140625 C 88.679688 292.71875 86.105469 292.296875 83.707031 291.890625 C 65.414062 265.179688 65.339844 250.023438 65.332031 249.691406 L 65.328125 249.691406 C 65.347656 248.382812 64.3125 247.300781 63.003906 247.265625 C 61.6875 247.230469 60.589844 248.273438 60.554688 249.597656 L 60.554688 249.691406 C 60.546875 250.9375 60.945312 265.683594 77.175781 290.722656 C 76.046875 290.507812 74.992188 290.304688 73.996094 290.105469 C 72.699219 288.523438 69.050781 283.808594 65.347656 276.566406 C 60.75 267.582031 56.066406 254.742188 55.566406 239.167969 C 55.519531 237.84375 54.417969 236.808594 53.097656 236.851562 C 51.78125 236.894531 50.746094 238 50.789062 239.320312 C 51.324219 255.910156 56.335938 269.515625 61.210938 278.972656 C 63.261719 282.949219 65.28125 286.1875 66.949219 288.625 C 66.550781 288.535156 66.183594 288.453125 65.863281 288.378906 C 65.253906 288.238281 64.789062 288.128906 64.480469 288.054688 C 64.324219 288.015625 64.210938 287.984375 64.132812 287.96875 L 64.023438 287.941406 C 63.988281 287.929688 63.953125 287.929688 63.914062 287.921875 C 63.402344 287.390625 62.898438 286.851562 62.417969 286.304688 C 57.917969 281.203125 54.664062 275.507812 52.28125 269.296875 C 48.703125 259.984375 47.097656 249.488281 46.296875 238.3125 C 45.492188 227.140625 45.480469 215.304688 44.996094 203.328125 C 43.828125 174.695312 35.84375 147.777344 28.164062 127.988281 C 24.226562 117.847656 20.371094 109.582031 17.539062 103.917969 C 17.726562 103.980469 17.894531 104.042969 18.089844 104.109375 C 23.21875 105.742188 30.386719 107.210938 39.328125 108.53125 C 66.125 112.472656 108.796875 115.007812 156.925781 115.011719 C 197.300781 115.011719 233.847656 113.226562 260.382812 110.324219 C 273.65625 108.867188 284.414062 107.144531 291.996094 105.1875 C 293.578125 104.777344 295.007812 104.359375 296.3125 103.925781 C 293.480469 109.59375 289.625 117.851562 285.691406 127.988281 C 284.46875 131.140625 283.238281 134.496094 282.023438 137.992188 C 281.988281 138.082031 281.957031 138.179688 281.929688 138.277344 C 278.964844 146.863281 276.136719 156.402344 273.859375 166.566406 C 273.828125 166.671875 273.808594 166.777344 273.789062 166.882812 C 271.226562 178.386719 269.375 190.683594 268.859375 203.328125 C 268.285156 217.523438 268.375 231.523438 267.023438 244.449219 C 266.011719 254.144531 264.191406 263.222656 260.746094 271.347656 Z M 239.273438 296.425781 L 239.273438 296.421875 C 239.234375 296.453125 238.878906 296.710938 238.351562 297.148438 C 238.199219 297.238281 238.042969 297.332031 237.894531 297.421875 C 237.730469 296.894531 237.503906 296.355469 237.164062 295.824219 C 238.730469 295.507812 240.296875 295.179688 241.867188 294.839844 C 241.28125 295.25 240.679688 295.660156 240.070312 296.058594 C 239.792969 296.128906 239.519531 296.246094 239.273438 296.425781 Z M 228.980469 309.808594 C 227.828125 312.664062 227.050781 315.957031 227.050781 319.609375 C 227.050781 319.8125 227.074219 320.027344 227.078125 320.230469 C 220.074219 322.761719 190.691406 332.585938 156.734375 332.988281 C 137.53125 332.769531 119.769531 329.546875 106.691406 326.308594 C 99.917969 324.632812 94.398438 322.957031 90.582031 321.703125 C 88.730469 321.09375 87.285156 320.589844 86.289062 320.230469 C 86.292969 320.027344 86.316406 319.8125 86.316406 319.609375 C 86.320312 315.957031 85.542969 312.660156 84.390625 309.808594 C 83.867188 308.507812 83.265625 307.3125 82.625 306.199219 C 86.257812 307.78125 90.191406 309.21875 94.476562 310.484375 C 109.640625 314.976562 129.039062 317.4375 153.980469 317.4375 L 158.816406 317.4375 C 159 317.4375 159.171875 317.414062 159.34375 317.375 C 159.515625 317.414062 159.6875 317.4375 159.875 317.4375 C 189.433594 317.4375 211.207031 313.984375 227.378906 307.785156 C 228.476562 307.363281 229.550781 306.921875 230.597656 306.472656 C 230.015625 307.511719 229.460938 308.613281 228.980469 309.808594 Z M 86.734375 298.949219 C 86.539062 299.328125 86.378906 299.71875 86.230469 300.105469 C 85.304688 298.710938 84.464844 297.605469 83.6875 296.742188 C 85.015625 296.964844 86.382812 297.191406 87.816406 297.417969 C 87.367188 297.894531 87.019531 298.417969 86.734375 298.949219 Z M 95.707031 305.847656 C 93.347656 305.144531 91.097656 304.394531 88.96875 303.597656 C 89.078125 303.035156 89.230469 302.375 89.441406 301.742188 C 89.675781 301.03125 89.996094 300.375 90.277344 300.03125 C 90.414062 299.851562 90.53125 299.761719 90.589844 299.730469 L 90.675781 299.699219 C 90.71875 299.699219 90.902344 299.710938 91.292969 299.964844 C 91.871094 300.335938 92.804688 301.257812 93.921875 302.90625 C 94.464844 303.710938 95.0625 304.683594 95.707031 305.847656 Z M 99.296875 301.441406 C 98.996094 302.15625 98.769531 302.902344 98.578125 303.644531 C 97.523438 301.785156 96.554688 300.332031 95.640625 299.210938 C 95.429688 298.957031 95.222656 298.71875 95.015625 298.496094 C 96.824219 298.75 98.695312 299.007812 100.628906 299.257812 C 100.050781 299.917969 99.632812 300.671875 99.296875 301.441406 Z M 111.015625 309.402344 C 107.667969 308.8125 104.496094 308.148438 101.496094 307.414062 C 101.605469 306.574219 101.765625 305.582031 102.011719 304.621094 C 102.285156 303.53125 102.683594 302.5 103.097656 301.894531 C 103.296875 301.59375 103.492188 301.410156 103.625 301.324219 C 103.761719 301.238281 103.816406 301.222656 103.941406 301.21875 C 104.082031 301.21875 104.390625 301.269531 104.910156 301.59375 C 105.679688 302.070312 106.832031 303.160156 108.214844 305.050781 C 109.054688 306.199219 109.992188 307.636719 111.015625 309.402344 Z M 114.867188 303.253906 C 114.324219 304.425781 113.957031 305.671875 113.683594 306.867188 C 112.191406 304.363281 110.84375 302.460938 109.605469 301.050781 C 109.355469 300.761719 109.105469 300.496094 108.863281 300.25 C 111.273438 300.515625 113.765625 300.769531 116.320312 301.015625 C 115.722656 301.691406 115.246094 302.457031 114.867188 303.253906 Z M 130.046875 311.761719 C 125.339844 311.386719 120.894531 310.902344 116.707031 310.304688 C 116.835938 309.289062 117.039062 308.046875 117.371094 306.851562 C 117.714844 305.578125 118.21875 304.375 118.78125 303.636719 C 119.058594 303.265625 119.335938 303.015625 119.589844 302.867188 C 119.847656 302.71875 120.078125 302.648438 120.402344 302.644531 C 120.765625 302.640625 121.28125 302.75 121.992188 303.125 C 123.054688 303.675781 124.507812 304.835938 126.253906 306.824219 C 127.390625 308.109375 128.65625 309.746094 130.046875 311.761719 Z M 136.140625 304.433594 C 134.824219 306.300781 133.9375 308.402344 133.3125 310.1875 C 130.976562 306.753906 128.925781 304.257812 127.074219 302.5 C 126.839844 302.273438 126.605469 302.070312 126.375 301.867188 C 130.050781 302.140625 133.847656 302.371094 137.742188 302.566406 C 137.144531 303.136719 136.613281 303.769531 136.140625 304.433594 Z M 152.902344 312.644531 C 147.089844 312.625 141.605469 312.46875 136.417969 312.183594 C 136.746094 311.152344 137.183594 309.941406 137.757812 308.765625 C 138.417969 307.386719 139.253906 306.085938 140.160156 305.210938 C 140.613281 304.769531 141.078125 304.441406 141.542969 304.222656 C 142.011719 304.003906 142.472656 303.894531 142.996094 303.894531 C 143.550781 303.894531 144.191406 304.023438 144.96875 304.382812 C 146.136719 304.917969 147.59375 306.007812 149.277344 307.875 C 150.390625 309.109375 151.601562 310.6875 152.902344 312.644531 Z M 161.621094 305.46875 C 160.09375 307.164062 158.484375 309.328125 156.777344 312.039062 C 154.363281 308.207031 152.152344 305.46875 150.066406 303.589844 C 149.835938 303.378906 149.605469 303.191406 149.375 303.003906 C 152.992188 303.089844 156.679688 303.140625 160.433594 303.144531 C 161.632812 303.144531 162.84375 303.128906 164.054688 303.121094 C 163.257812 303.785156 162.453125 304.550781 161.621094 305.46875 Z M 184.617188 304.445312 C 183.277344 305.96875 181.828125 307.863281 180.25 310.179688 C 179.957031 309.339844 179.605469 308.433594 179.175781 307.511719 C 178.414062 305.890625 177.4375 304.226562 176.105469 302.859375 C 179.578125 302.734375 183.101562 302.5625 186.648438 302.34375 C 186 302.949219 185.324219 303.648438 184.617188 304.445312 Z M 196.859375 310.347656 C 192.664062 310.9375 188.210938 311.417969 183.496094 311.785156 C 185.609375 308.71875 187.433594 306.542969 188.949219 305.105469 C 189.972656 304.128906 190.855469 303.492188 191.566406 303.125 C 192.277344 302.75 192.792969 302.640625 193.152344 302.644531 C 193.492188 302.648438 193.726562 302.722656 193.992188 302.878906 C 194.449219 303.148438 195 303.816406 195.445312 304.78125 C 196.128906 306.214844 196.5625 308.195312 196.78125 309.769531 C 196.8125 309.96875 196.835938 310.164062 196.859375 310.347656 Z M 202.457031 302.925781 C 201.648438 304.027344 200.792969 305.332031 199.882812 306.851562 C 199.832031 306.632812 199.78125 306.410156 199.722656 306.191406 C 199.304688 304.617188 198.722656 302.992188 197.738281 301.613281 C 197.714844 301.574219 197.679688 301.546875 197.652344 301.511719 C 199.800781 301.316406 201.953125 301.113281 204.121094 300.882812 C 203.582031 301.480469 203.035156 302.140625 202.457031 302.925781 Z M 212.074219 307.492188 C 209.058594 308.222656 205.867188 308.878906 202.507812 309.464844 C 204.113281 306.703125 205.496094 304.722656 206.644531 303.421875 C 207.449219 302.5 208.136719 301.914062 208.648438 301.59375 C 209.167969 301.269531 209.476562 301.21875 209.621094 301.21875 C 209.746094 301.222656 209.804688 301.238281 209.945312 301.332031 C 210.195312 301.484375 210.628906 302.035156 210.964844 302.855469 C 211.492188 304.070312 211.839844 305.773438 212.027344 307.125 C 212.042969 307.257812 212.054688 307.367188 212.074219 307.492188 Z M 216.675781 300.882812 C 216.140625 301.679688 215.570312 302.59375 214.984375 303.632812 C 214.660156 302.386719 214.222656 301.121094 213.507812 300.007812 C 213.457031 299.925781 213.390625 299.855469 213.335938 299.78125 C 214.886719 299.578125 216.441406 299.363281 217.996094 299.136719 C 217.570312 299.65625 217.132812 300.21875 216.675781 300.882812 Z M 224.609375 303.699219 C 222.519531 304.476562 220.335938 305.210938 218.023438 305.894531 C 217.949219 305.917969 217.863281 305.941406 217.789062 305.960938 C 218.898438 303.945312 219.867188 302.484375 220.683594 301.492188 C 221.332031 300.703125 221.882812 300.214844 222.265625 299.964844 C 222.65625 299.710938 222.839844 299.699219 222.882812 299.699219 L 222.976562 299.734375 C 223.085938 299.789062 223.382812 300.09375 223.648438 300.609375 C 224.046875 301.371094 224.371094 302.5 224.554688 303.398438 C 224.574219 303.507812 224.589844 303.601562 224.609375 303.699219 Z M 228.914062 297.878906 C 228.417969 298.515625 227.890625 299.265625 227.332031 300.105469 C 227.046875 299.347656 226.683594 298.585938 226.160156 297.886719 C 226.152344 297.878906 226.140625 297.871094 226.140625 297.867188 C 227.222656 297.683594 228.308594 297.496094 229.390625 297.304688 C 229.234375 297.492188 229.078125 297.667969 228.914062 297.878906 Z M 234.65625 299.253906 C 233.496094 299.867188 232.285156 300.460938 231.035156 301.039062 C 231.636719 300.195312 232.175781 299.523438 232.640625 299.019531 C 233.191406 298.425781 233.640625 298.0625 233.929688 297.886719 C 234.027344 297.824219 234.101562 297.792969 234.160156 297.765625 C 234.21875 297.851562 234.292969 297.992188 234.363281 298.175781 C 234.488281 298.476562 234.582031 298.867188 234.65625 299.253906 Z M 160.652344 312.644531 C 162.609375 309.703125 164.363281 307.625 165.886719 306.257812 C 166.90625 305.339844 167.8125 304.742188 168.589844 304.382812 C 169.367188 304.023438 170.007812 303.894531 170.558594 303.894531 C 171.101562 303.894531 171.578125 304.011719 172.0625 304.246094 C 172.898438 304.644531 173.742188 305.449219 174.496094 306.511719 C 175.625 308.097656 176.5 310.207031 177.050781 311.894531 C 177.085938 312.003906 177.121094 312.101562 177.152344 312.207031 C 171.960938 312.488281 166.460938 312.632812 160.652344 312.644531 Z M 78.929688 299.105469 C 78.957031 298.964844 78.988281 298.824219 79.027344 298.695312 C 79.132812 298.277344 79.292969 297.925781 79.398438 297.765625 C 79.492188 297.804688 79.625 297.875 79.808594 298.003906 C 80.300781 298.351562 81.066406 299.09375 82.007812 300.335938 C 82.121094 300.484375 82.25 300.667969 82.367188 300.832031 C 81.183594 300.273438 80.039062 299.695312 78.929688 299.105469 Z M 76.621094 295.488281 C 76.367188 295.8125 76.179688 296.15625 76.023438 296.484375 C 75.898438 296.746094 75.800781 297.011719 75.714844 297.273438 C 74.234375 296.375 72.824219 295.449219 71.492188 294.488281 C 73.023438 294.796875 74.722656 295.132812 76.621094 295.488281 Z M 13.644531 96.5 C 13.816406 96.34375 14.0625 96.148438 14.402344 95.9375 C 15.566406 95.195312 17.652344 94.316406 20.445312 93.484375 C 25.351562 92.007812 32.453125 90.59375 41.273438 89.335938 C 67.75 85.546875 109.730469 83.082031 156.925781 83.085938 C 197.15625 83.085938 233.578125 84.875 259.863281 87.746094 C 273.003906 89.183594 283.617188 90.898438 290.804688 92.761719 C 294.390625 93.679688 297.128906 94.660156 298.78125 95.550781 C 299.460938 95.910156 299.933594 96.253906 300.210938 96.503906 C 300.117188 96.671875 300.011719 96.859375 299.898438 97.0625 C 299.769531 97.160156 299.625 97.261719 299.453125 97.371094 C 298.289062 98.113281 296.203125 98.992188 293.40625 99.824219 C 288.503906 101.300781 281.402344 102.714844 272.582031 103.972656 C 246.101562 107.761719 204.128906 110.226562 156.925781 110.222656 C 116.699219 110.222656 80.273438 108.4375 53.992188 105.5625 C 40.855469 104.128906 30.238281 102.410156 23.050781 100.550781 C 19.464844 99.625 16.726562 98.648438 15.074219 97.757812 C 14.597656 97.507812 14.230469 97.265625 13.953125 97.054688 C 13.839844 96.851562 13.738281 96.667969 13.644531 96.5 Z M 355.757812 193.992188 C 362.140625 183.449219 366.050781 171.132812 366.046875 157.03125 C 366.046875 154.476562 365.921875 151.867188 365.65625 149.195312 C 365.082031 143.355469 363.882812 138.441406 362.132812 134.332031 C 359.515625 128.167969 355.59375 123.832031 350.914062 121.152344 C 346.234375 118.457031 340.898438 117.414062 335.414062 117.414062 C 329.371094 117.417969 323.109375 118.671875 317.082031 120.511719 C 308.042969 123.277344 299.535156 127.378906 293.25 130.792969 C 291.589844 131.695312 290.089844 132.546875 288.777344 133.316406 C 289.230469 132.09375 289.6875 130.894531 290.144531 129.71875 C 293.921875 119.988281 297.628906 112.003906 300.390625 106.460938 C 301.765625 103.695312 302.90625 101.535156 303.699219 100.074219 C 303.753906 100.023438 303.8125 99.972656 303.863281 99.917969 C 304.25 99.503906 304.589844 99.035156 304.84375 98.484375 C 305.039062 98.066406 305.152344 97.589844 305.207031 97.101562 C 305.226562 96.992188 305.238281 96.882812 305.246094 96.769531 C 305.246094 96.730469 305.257812 96.695312 305.257812 96.65625 C 305.257812 96.632812 305.253906 96.609375 305.25 96.589844 C 305.246094 96.464844 305.230469 96.34375 305.207031 96.226562 C 305.15625 95.730469 305.042969 95.246094 304.84375 94.824219 C 304.339844 93.761719 303.558594 93 302.664062 92.339844 C 300.972656 91.117188 298.707031 90.148438 295.765625 89.203125 C 290.632812 87.5625 283.46875 86.101562 274.527344 84.78125 C 247.730469 80.835938 205.054688 78.300781 156.925781 78.296875 C 116.554688 78.300781 80.007812 80.085938 53.472656 82.988281 C 40.199219 84.441406 29.441406 86.164062 21.859375 88.121094 C 18.058594 89.109375 15.0625 90.136719 12.828125 91.324219 C 11.707031 91.929688 10.761719 92.566406 9.992188 93.394531 C 9.605469 93.808594 9.265625 94.277344 9.007812 94.824219 C 8.8125 95.246094 8.699219 95.730469 8.644531 96.226562 C 8.625 96.34375 8.609375 96.464844 8.605469 96.589844 C 8.605469 96.609375 8.597656 96.632812 8.597656 96.65625 C 8.597656 96.695312 8.609375 96.730469 8.609375 96.769531 C 8.617188 96.882812 8.628906 96.992188 8.648438 97.101562 C 8.703125 97.589844 8.8125 98.066406 9.007812 98.484375 C 9.304688 99.109375 9.703125 99.617188 10.152344 100.074219 C 12.632812 104.640625 18.503906 116.011719 24.417969 131.566406 C 31.753906 150.847656 39.128906 176.527344 40.222656 203.519531 C 40.796875 217.570312 40.695312 231.648438 42.082031 244.945312 C 43.121094 254.917969 45.003906 264.46875 48.710938 273.222656 C 51.488281 279.78125 55.304688 285.886719 60.527344 291.308594 C 63.5 294.398438 66.921875 297.257812 70.851562 299.863281 C 70.988281 300.03125 71.140625 300.1875 71.324219 300.320312 C 71.367188 300.347656 74 302.273438 76.546875 305.644531 C 77.824219 307.332031 79.078125 309.371094 80.003906 311.710938 C 80.933594 314.054688 81.539062 316.683594 81.539062 319.609375 C 81.539062 320.265625 81.507812 320.945312 81.445312 321.636719 C 81.34375 322.703125 81.957031 323.703125 82.949219 324.09375 C 83.097656 324.140625 115.09375 336.722656 154.003906 337.726562 C 154.183594 337.769531 154.367188 337.796875 154.554688 337.796875 C 155.273438 337.796875 155.980469 337.785156 156.691406 337.773438 C 157.398438 337.78125 158.101562 337.796875 158.816406 337.796875 C 159.003906 337.796875 159.1875 337.769531 159.363281 337.730469 C 198.277344 336.722656 230.269531 324.140625 230.417969 324.09375 C 231.414062 323.703125 232.027344 322.699219 231.925781 321.632812 C 231.859375 320.945312 231.824219 320.269531 231.824219 319.609375 C 231.828125 316.640625 232.457031 313.96875 233.410156 311.601562 C 234.835938 308.050781 237.019531 305.191406 238.851562 303.242188 C 239.75 302.28125 240.558594 301.542969 241.136719 301.050781 C 246.660156 297.640625 251.242188 293.761719 255.015625 289.476562 C 259.933594 283.90625 263.480469 277.675781 266.03125 271.015625 C 268.910156 263.523438 270.546875 255.488281 271.53125 247.128906 C 288.664062 243.003906 311.597656 234.648438 330.695312 220.589844 C 340.542969 213.332031 349.371094 204.539062 355.757812 193.992188 " fill-opacity="1" fill-rule="nonzero"/></g></svg>