<svg xmlns="http://www.w3.org/2000/svg" xmlns:xlink="http://www.w3.org/1999/xlink" width="500" zoomAndPan="magnify" viewBox="0 0 375 374.999991" height="500" preserveAspectRatio="xMidYMid meet" version="1.0"><defs><clipPath id="id1"><path d="M 37.5 78.308594 L 357.75 78.308594 L 357.75 310.058594 L 37.5 310.058594 Z M 37.5 78.308594 " clip-rule="nonzero"/></clipPath></defs><g clip-path="url(#id1)"><path fill="#050606" d="M 310.148438 210.347656 C 297.566406 217.238281 284.28125 221.851562 273.472656 224.566406 C 273.5625 223.550781 273.652344 222.535156 273.722656 221.511719 C 273.945312 218.433594 274.097656 215.3125 274.214844 212.171875 C 292.050781 207.679688 308.351562 200.582031 320.410156 190.109375 C 326.609375 184.722656 331.675781 178.4375 335.183594 171.179688 C 338.699219 163.925781 340.636719 155.707031 340.636719 146.546875 C 340.636719 146.226562 340.632812 145.90625 340.628906 145.582031 C 340.589844 142.964844 340.253906 140.695312 339.617188 138.730469 C 338.675781 135.785156 336.972656 133.503906 334.738281 132.085938 C 332.503906 130.664062 329.871094 130.105469 327.105469 130.105469 C 322.164062 130.117188 316.632812 131.824219 310.960938 134.273438 C 302.476562 137.957031 293.734375 143.40625 287.0625 147.9375 C 284.574219 149.628906 282.378906 151.199219 280.601562 152.496094 C 282.269531 145.890625 284.171875 139.628906 286.15625 133.847656 C 287.984375 132.667969 293.832031 129.003906 301.371094 125.453125 C 305.683594 123.417969 310.554688 121.421875 315.519531 119.941406 C 320.484375 118.460938 325.535156 117.507812 330.199219 117.511719 C 333.117188 117.511719 335.875 117.878906 338.375 118.699219 C 342.136719 119.941406 345.335938 122.128906 347.886719 125.804688 C 350.425781 129.480469 352.292969 134.722656 353.015625 142.035156 C 353.238281 144.28125 353.34375 146.476562 353.34375 148.613281 C 353.34375 160.414062 350.101562 170.574219 344.753906 179.40625 C 336.734375 192.636719 323.878906 202.835938 310.148438 210.347656 Z M 279.058594 158.996094 C 281.140625 157.382812 288.59375 151.730469 297.554688 146.242188 C 302.535156 143.183594 307.976562 140.191406 313.167969 137.980469 C 318.351562 135.761719 323.300781 134.367188 327.105469 134.378906 C 328.578125 134.378906 329.863281 134.582031 330.945312 134.96875 C 331.757812 135.257812 332.460938 135.652344 333.082031 136.164062 C 334.007812 136.929688 334.78125 137.980469 335.363281 139.519531 C 335.945312 141.050781 336.316406 143.070312 336.351562 145.644531 C 336.355469 145.945312 336.359375 146.246094 336.359375 146.546875 C 336.355469 155.109375 334.5625 162.640625 331.335938 169.316406 C 326.492188 179.324219 318.386719 187.441406 308.054688 193.902344 C 298.410156 199.9375 286.835938 204.472656 274.367188 207.710938 C 274.542969 201.890625 274.652344 196.011719 274.894531 190.132812 C 275.332031 179.386719 276.886719 168.875 279.058594 158.996094 Z M 263.359375 250.707031 C 261.046875 256.152344 257.921875 261.125 253.640625 265.5625 C 253.609375 265.59375 253.578125 265.625 253.546875 265.65625 C 225.796875 272.519531 198.136719 274.824219 173.5625 274.824219 C 148.824219 274.824219 127.21875 272.492188 111.8125 270.167969 C 109.332031 269.789062 107.027344 269.414062 104.878906 269.050781 C 88.503906 245.199219 88.4375 231.660156 88.429688 231.363281 L 88.425781 231.363281 C 88.445312 230.195312 87.519531 229.230469 86.347656 229.199219 C 85.167969 229.164062 84.183594 230.097656 84.15625 231.28125 L 84.15625 231.363281 C 84.148438 232.476562 84.503906 245.644531 99.035156 268.007812 C 98.019531 267.816406 97.078125 267.632812 96.183594 267.457031 C 95.023438 266.042969 91.761719 261.832031 88.445312 255.363281 C 84.328125 247.34375 80.132812 235.875 79.6875 221.964844 C 79.648438 220.785156 78.660156 219.859375 77.480469 219.898438 C 76.300781 219.9375 75.375 220.921875 75.414062 222.101562 C 75.890625 236.917969 80.378906 249.066406 84.742188 257.515625 C 86.578125 261.066406 88.386719 263.960938 89.878906 266.136719 C 89.519531 266.054688 89.191406 265.980469 88.90625 265.914062 C 88.359375 265.789062 87.945312 265.691406 87.667969 265.625 C 87.527344 265.589844 87.425781 265.5625 87.355469 265.546875 L 87.261719 265.523438 C 87.226562 265.515625 87.195312 265.515625 87.160156 265.507812 C 86.703125 265.03125 86.253906 264.550781 85.820312 264.0625 C 81.792969 259.507812 78.882812 254.421875 76.746094 248.875 C 73.542969 240.554688 72.105469 231.183594 71.390625 221.203125 C 70.667969 211.226562 70.660156 200.65625 70.226562 189.957031 C 69.179688 164.386719 62.03125 140.351562 55.15625 122.675781 C 51.632812 113.617188 48.183594 106.238281 45.644531 101.179688 C 45.816406 101.234375 45.964844 101.292969 46.140625 101.351562 C 50.734375 102.808594 57.148438 104.121094 65.152344 105.296875 C 89.140625 108.820312 127.339844 111.082031 170.421875 111.085938 C 206.566406 111.085938 239.28125 109.492188 263.035156 106.898438 C 274.917969 105.597656 284.546875 104.0625 291.332031 102.3125 C 292.75 101.945312 294.03125 101.574219 295.199219 101.1875 C 292.664062 106.246094 289.210938 113.625 285.691406 122.675781 C 284.59375 125.492188 283.492188 128.488281 282.40625 131.609375 C 282.375 131.691406 282.347656 131.777344 282.324219 131.863281 C 279.667969 139.53125 277.136719 148.050781 275.097656 157.128906 C 275.070312 157.222656 275.050781 157.316406 275.035156 157.410156 C 272.742188 167.6875 271.085938 178.667969 270.625 189.957031 C 270.109375 202.636719 270.1875 215.136719 268.980469 226.683594 C 268.070312 235.339844 266.445312 243.449219 263.359375 250.707031 Z M 244.136719 273.101562 L 244.136719 273.097656 C 244.101562 273.125 243.785156 273.355469 243.3125 273.746094 C 243.175781 273.828125 243.035156 273.910156 242.902344 273.992188 C 242.757812 273.519531 242.554688 273.039062 242.25 272.5625 C 243.652344 272.28125 245.054688 271.988281 246.460938 271.683594 C 245.9375 272.050781 245.398438 272.414062 244.851562 272.773438 C 244.601562 272.835938 244.359375 272.941406 244.136719 273.101562 Z M 234.921875 285.054688 C 233.890625 287.605469 233.195312 290.542969 233.195312 293.804688 C 233.195312 293.988281 233.21875 294.175781 233.222656 294.359375 C 226.953125 296.621094 200.648438 305.394531 170.253906 305.753906 C 153.0625 305.558594 137.160156 302.679688 125.453125 299.789062 C 119.390625 298.292969 114.449219 296.796875 111.035156 295.675781 C 109.375 295.132812 108.082031 294.679688 107.191406 294.359375 C 107.195312 294.175781 107.214844 293.988281 107.214844 293.804688 C 107.21875 290.542969 106.519531 287.601562 105.492188 285.054688 C 105.023438 283.890625 104.484375 282.824219 103.910156 281.828125 C 107.164062 283.242188 110.683594 284.527344 114.519531 285.65625 C 128.097656 289.667969 145.460938 291.863281 167.789062 291.867188 L 172.113281 291.867188 C 172.277344 291.867188 172.433594 291.84375 172.589844 291.808594 C 172.738281 291.84375 172.894531 291.867188 173.0625 291.867188 C 199.523438 291.863281 219.015625 288.78125 233.488281 283.246094 C 234.472656 282.867188 235.433594 282.472656 236.371094 282.074219 C 235.851562 283.003906 235.351562 283.984375 234.921875 285.054688 Z M 107.589844 275.355469 C 107.414062 275.695312 107.269531 276.042969 107.136719 276.386719 C 106.308594 275.140625 105.558594 274.15625 104.863281 273.382812 C 106.050781 273.582031 107.273438 273.785156 108.558594 273.988281 C 108.152344 274.410156 107.84375 274.878906 107.589844 275.355469 Z M 115.621094 281.515625 C 113.507812 280.886719 111.496094 280.21875 109.589844 279.503906 C 109.6875 279.003906 109.824219 278.414062 110.015625 277.847656 C 110.222656 277.214844 110.507812 276.625 110.761719 276.320312 C 110.882812 276.160156 110.988281 276.082031 111.039062 276.050781 L 111.117188 276.023438 C 111.152344 276.023438 111.320312 276.035156 111.667969 276.261719 C 112.1875 276.59375 113.023438 277.414062 114.023438 278.890625 C 114.511719 279.605469 115.042969 280.476562 115.621094 281.515625 Z M 118.835938 277.582031 C 118.566406 278.21875 118.363281 278.886719 118.191406 279.546875 C 117.25 277.886719 116.378906 276.589844 115.5625 275.589844 C 115.371094 275.359375 115.1875 275.148438 115.003906 274.949219 C 116.621094 275.179688 118.292969 275.40625 120.027344 275.628906 C 119.511719 276.21875 119.136719 276.890625 118.835938 277.582031 Z M 129.324219 284.6875 C 126.328125 284.160156 123.492188 283.570312 120.804688 282.914062 C 120.898438 282.164062 121.046875 281.277344 121.265625 280.421875 C 121.511719 279.445312 121.867188 278.523438 122.238281 277.988281 C 122.417969 277.71875 122.589844 277.550781 122.707031 277.472656 C 122.832031 277.398438 122.878906 277.386719 122.992188 277.382812 C 123.117188 277.378906 123.394531 277.425781 123.859375 277.714844 C 124.550781 278.140625 125.578125 279.113281 126.820312 280.804688 C 127.570312 281.828125 128.40625 283.113281 129.324219 284.6875 Z M 132.773438 279.199219 C 132.285156 280.246094 131.957031 281.355469 131.710938 282.425781 C 130.375 280.191406 129.171875 278.492188 128.0625 277.230469 C 127.839844 276.972656 127.617188 276.734375 127.398438 276.515625 C 129.554688 276.753906 131.785156 276.980469 134.074219 277.199219 C 133.539062 277.804688 133.113281 278.488281 132.773438 279.199219 Z M 146.363281 286.796875 C 142.148438 286.464844 138.167969 286.027344 134.421875 285.496094 C 134.535156 284.589844 134.714844 283.476562 135.011719 282.410156 C 135.324219 281.273438 135.773438 280.199219 136.273438 279.542969 C 136.523438 279.210938 136.773438 278.984375 137 278.851562 C 137.234375 278.71875 137.4375 278.65625 137.730469 278.65625 C 138.050781 278.652344 138.515625 278.75 139.148438 279.082031 C 140.101562 279.574219 141.402344 280.613281 142.96875 282.386719 C 143.984375 283.535156 145.117188 285 146.363281 286.796875 Z M 151.816406 280.25 C 150.636719 281.921875 149.84375 283.796875 149.285156 285.390625 C 147.195312 282.324219 145.355469 280.09375 143.699219 278.523438 C 143.488281 278.324219 143.28125 278.140625 143.074219 277.960938 C 146.363281 278.207031 149.765625 278.410156 153.25 278.585938 C 152.714844 279.09375 152.238281 279.660156 151.816406 280.25 Z M 166.820312 287.585938 C 161.621094 287.570312 156.710938 287.429688 152.0625 287.175781 C 152.359375 286.253906 152.75 285.171875 153.261719 284.121094 C 153.855469 282.890625 154.601562 281.726562 155.414062 280.945312 C 155.820312 280.554688 156.238281 280.257812 156.652344 280.066406 C 157.070312 279.871094 157.484375 279.773438 157.953125 279.769531 C 158.449219 279.769531 159.023438 279.886719 159.71875 280.207031 C 160.761719 280.6875 162.070312 281.65625 163.578125 283.328125 C 164.574219 284.429688 165.65625 285.835938 166.820312 287.585938 Z M 174.625 281.175781 C 173.257812 282.691406 171.820312 284.625 170.292969 287.042969 C 168.128906 283.621094 166.148438 281.175781 164.28125 279.496094 C 164.074219 279.3125 163.871094 279.140625 163.664062 278.972656 C 166.902344 279.054688 170.203125 279.097656 173.5625 279.101562 C 174.636719 279.101562 175.71875 279.089844 176.804688 279.078125 C 176.089844 279.671875 175.367188 280.355469 174.625 281.175781 Z M 195.210938 280.265625 C 194.011719 281.621094 192.714844 283.3125 191.300781 285.382812 C 191.039062 284.636719 190.722656 283.824219 190.339844 283 C 189.660156 281.550781 188.78125 280.066406 187.59375 278.847656 C 190.703125 278.734375 193.851562 278.582031 197.03125 278.386719 C 196.449219 278.925781 195.84375 279.550781 195.210938 280.265625 Z M 206.171875 285.535156 C 202.414062 286.0625 198.425781 286.492188 194.207031 286.820312 C 196.101562 284.078125 197.730469 282.136719 199.089844 280.851562 C 200.007812 279.980469 200.796875 279.414062 201.433594 279.082031 C 202.066406 278.75 202.53125 278.652344 202.851562 278.65625 C 203.15625 278.65625 203.367188 278.722656 203.605469 278.867188 C 204.015625 279.105469 204.507812 279.699219 204.90625 280.5625 C 205.515625 281.84375 205.90625 283.609375 206.101562 285.019531 C 206.128906 285.199219 206.148438 285.371094 206.171875 285.535156 Z M 211.179688 278.90625 C 210.457031 279.890625 209.691406 281.054688 208.875 282.414062 C 208.832031 282.21875 208.785156 282.019531 208.730469 281.824219 C 208.359375 280.417969 207.839844 278.964844 206.957031 277.730469 C 206.933594 277.699219 206.902344 277.671875 206.882812 277.640625 C 208.800781 277.46875 210.730469 277.285156 212.667969 277.082031 C 212.1875 277.617188 211.699219 278.203125 211.179688 278.90625 Z M 219.789062 282.984375 C 217.089844 283.636719 214.234375 284.222656 211.226562 284.746094 C 212.664062 282.277344 213.902344 280.511719 214.929688 279.347656 C 215.652344 278.523438 216.265625 278 216.722656 277.714844 C 217.191406 277.425781 217.464844 277.378906 217.59375 277.382812 C 217.703125 277.386719 217.757812 277.398438 217.882812 277.484375 C 218.105469 277.617188 218.496094 278.109375 218.796875 278.84375 C 219.269531 279.925781 219.582031 281.449219 219.75 282.65625 C 219.761719 282.773438 219.773438 282.871094 219.789062 282.984375 Z M 223.90625 277.082031 C 223.429688 277.792969 222.921875 278.609375 222.394531 279.539062 C 222.105469 278.421875 221.710938 277.292969 221.074219 276.296875 C 221.027344 276.226562 220.96875 276.164062 220.917969 276.097656 C 222.308594 275.914062 223.699219 275.722656 225.089844 275.523438 C 224.710938 275.984375 224.320312 276.488281 223.90625 277.082031 Z M 231.007812 279.597656 C 229.140625 280.289062 227.183594 280.945312 225.117188 281.554688 C 225.050781 281.578125 224.972656 281.597656 224.90625 281.617188 C 225.898438 279.816406 226.765625 278.511719 227.5 277.625 C 228.078125 276.917969 228.570312 276.484375 228.914062 276.261719 C 229.261719 276.035156 229.425781 276.023438 229.464844 276.023438 L 229.550781 276.054688 C 229.648438 276.105469 229.914062 276.375 230.148438 276.835938 C 230.507812 277.519531 230.796875 278.523438 230.960938 279.328125 C 230.980469 279.425781 230.992188 279.507812 231.007812 279.597656 Z M 234.863281 274.398438 C 234.421875 274.96875 233.945312 275.636719 233.449219 276.386719 C 233.195312 275.710938 232.867188 275.03125 232.398438 274.40625 C 232.394531 274.398438 232.382812 274.394531 232.378906 274.386719 C 233.347656 274.222656 234.320312 274.058594 235.292969 273.886719 C 235.148438 274.054688 235.011719 274.210938 234.863281 274.398438 Z M 240.003906 275.625 C 238.964844 276.175781 237.882812 276.707031 236.765625 277.222656 C 237.300781 276.464844 237.785156 275.867188 238.199219 275.417969 C 238.691406 274.886719 239.09375 274.5625 239.355469 274.40625 C 239.441406 274.351562 239.507812 274.320312 239.558594 274.300781 C 239.613281 274.375 239.679688 274.5 239.742188 274.664062 C 239.851562 274.933594 239.9375 275.28125 240.003906 275.625 Z M 173.757812 287.585938 C 175.507812 284.957031 177.082031 283.101562 178.445312 281.882812 C 179.355469 281.0625 180.167969 280.527344 180.863281 280.207031 C 181.558594 279.886719 182.132812 279.769531 182.628906 279.769531 C 183.113281 279.773438 183.539062 279.875 183.972656 280.085938 C 184.71875 280.441406 185.476562 281.15625 186.152344 282.105469 C 187.160156 283.527344 187.945312 285.410156 188.4375 286.914062 C 188.472656 287.011719 188.5 287.101562 188.527344 287.195312 C 183.882812 287.445312 178.957031 287.574219 173.757812 287.585938 Z M 100.601562 275.492188 C 100.628906 275.367188 100.65625 275.242188 100.6875 275.125 C 100.785156 274.757812 100.925781 274.441406 101.023438 274.300781 C 101.105469 274.332031 101.226562 274.394531 101.390625 274.511719 C 101.832031 274.820312 102.515625 275.484375 103.359375 276.59375 C 103.460938 276.726562 103.574219 276.890625 103.679688 277.035156 C 102.617188 276.535156 101.59375 276.023438 100.601562 275.492188 Z M 98.535156 272.265625 C 98.308594 272.554688 98.140625 272.859375 98 273.15625 C 97.890625 273.386719 97.800781 273.625 97.722656 273.859375 C 96.398438 273.058594 95.136719 272.226562 93.945312 271.371094 C 95.316406 271.648438 96.835938 271.945312 98.535156 272.265625 Z M 42.160156 94.554688 C 42.316406 94.417969 42.535156 94.242188 42.839844 94.054688 C 43.878906 93.390625 45.75 92.605469 48.25 91.859375 C 52.640625 90.542969 59 89.28125 66.894531 88.15625 C 90.59375 84.773438 128.171875 82.574219 170.421875 82.574219 C 206.4375 82.574219 239.039062 84.171875 262.570312 86.738281 C 274.332031 88.019531 283.832031 89.550781 290.269531 91.214844 C 293.476562 92.039062 295.929688 92.914062 297.40625 93.707031 C 298.015625 94.027344 298.441406 94.332031 298.6875 94.558594 C 298.601562 94.707031 298.507812 94.875 298.40625 95.054688 C 298.292969 95.144531 298.164062 95.238281 298.011719 95.332031 C 296.96875 95.996094 295.097656 96.78125 292.597656 97.523438 C 288.207031 98.839844 281.851562 100.101562 273.957031 101.230469 C 250.25 104.613281 212.675781 106.8125 170.421875 106.808594 C 134.414062 106.808594 101.804688 105.214844 78.277344 102.648438 C 66.519531 101.367188 57.015625 99.832031 50.582031 98.171875 C 47.371094 97.347656 44.917969 96.472656 43.441406 95.679688 C 43.015625 95.453125 42.6875 95.238281 42.4375 95.050781 C 42.335938 94.867188 42.246094 94.703125 42.160156 94.554688 Z M 348.410156 181.621094 C 354.125 172.207031 357.625 161.207031 357.621094 148.613281 C 357.621094 146.332031 357.507812 144 357.273438 141.617188 C 356.757812 136.398438 355.683594 132.011719 354.117188 128.339844 C 351.773438 122.835938 348.265625 118.964844 344.074219 116.570312 C 339.886719 114.164062 335.109375 113.230469 330.199219 113.230469 C 324.789062 113.234375 319.183594 114.355469 313.789062 116 C 305.699219 118.46875 298.082031 122.132812 292.457031 125.179688 C 290.96875 125.984375 289.628906 126.746094 288.453125 127.433594 C 288.859375 126.34375 289.265625 125.269531 289.675781 124.222656 C 293.058594 115.53125 296.375 108.398438 298.847656 103.449219 C 300.078125 100.980469 301.097656 99.054688 301.808594 97.746094 C 301.859375 97.699219 301.914062 97.65625 301.957031 97.609375 C 302.304688 97.238281 302.609375 96.816406 302.835938 96.328125 C 303.011719 95.953125 303.109375 95.53125 303.160156 95.089844 C 303.179688 94.992188 303.1875 94.898438 303.195312 94.796875 C 303.195312 94.761719 303.207031 94.726562 303.207031 94.695312 C 303.207031 94.675781 303.199219 94.652344 303.199219 94.632812 C 303.195312 94.523438 303.179688 94.417969 303.160156 94.3125 C 303.113281 93.867188 303.011719 93.4375 302.835938 93.058594 C 302.386719 92.109375 301.683594 91.429688 300.882812 90.839844 C 299.367188 89.746094 297.339844 88.882812 294.707031 88.039062 C 290.113281 86.574219 283.699219 85.265625 275.695312 84.089844 C 251.710938 80.5625 213.507812 78.300781 170.421875 78.296875 C 134.285156 78.300781 101.566406 79.894531 77.8125 82.488281 C 65.929688 83.785156 56.300781 85.324219 49.515625 87.074219 C 46.113281 87.957031 43.433594 88.871094 41.429688 89.933594 C 40.425781 90.472656 39.582031 91.042969 38.890625 91.78125 C 38.546875 92.148438 38.242188 92.566406 38.011719 93.058594 C 37.835938 93.4375 37.734375 93.867188 37.6875 94.3125 C 37.667969 94.417969 37.652344 94.523438 37.648438 94.632812 C 37.648438 94.652344 37.644531 94.675781 37.644531 94.695312 C 37.644531 94.726562 37.652344 94.761719 37.65625 94.796875 C 37.660156 94.898438 37.671875 94.992188 37.6875 95.089844 C 37.738281 95.527344 37.835938 95.953125 38.011719 96.328125 C 38.277344 96.882812 38.632812 97.339844 39.035156 97.746094 C 41.253906 101.824219 46.511719 111.980469 51.808594 125.871094 C 58.371094 143.089844 64.972656 166.023438 65.953125 190.132812 C 66.464844 202.679688 66.375 215.25 67.617188 227.125 C 68.550781 236.035156 70.234375 244.5625 73.550781 252.378906 C 76.039062 258.234375 79.453125 263.6875 84.128906 268.53125 C 86.789062 271.289062 89.855469 273.84375 93.375 276.167969 C 93.492188 276.320312 93.628906 276.460938 93.792969 276.578125 C 93.832031 276.605469 96.191406 278.324219 98.472656 281.332031 C 99.613281 282.839844 100.734375 284.664062 101.566406 286.753906 C 102.398438 288.84375 102.9375 291.191406 102.941406 293.804688 C 102.941406 294.394531 102.910156 294.996094 102.851562 295.617188 C 102.761719 296.570312 103.3125 297.460938 104.203125 297.808594 C 104.335938 297.851562 132.972656 309.089844 167.808594 309.984375 C 167.96875 310.023438 168.132812 310.050781 168.300781 310.050781 C 168.941406 310.046875 169.574219 310.035156 170.214844 310.027344 C 170.84375 310.035156 171.476562 310.046875 172.113281 310.046875 C 172.285156 310.046875 172.445312 310.023438 172.605469 309.988281 C 207.4375 309.089844 236.078125 297.851562 236.210938 297.808594 C 237.101562 297.460938 237.652344 296.566406 237.558594 295.613281 C 237.5 294.996094 237.472656 294.394531 237.472656 293.804688 C 237.472656 291.152344 238.035156 288.769531 238.886719 286.652344 C 240.164062 283.484375 242.121094 280.929688 243.761719 279.1875 C 244.566406 278.328125 245.289062 277.671875 245.808594 277.230469 C 250.75 274.1875 254.851562 270.722656 258.230469 266.894531 C 262.632812 261.921875 265.804688 256.355469 268.09375 250.410156 C 270.667969 243.714844 272.132812 236.542969 273.015625 229.078125 C 288.347656 225.390625 308.882812 217.929688 325.972656 205.375 C 334.792969 198.890625 342.695312 191.042969 348.410156 181.621094 " fill-opacity="1" fill-rule="nonzero"/></g></svg>